<?xml version="1.0" encoding="utf-8"?>
<!-- Generator: Adobe Illustrator 19.2.0, SVG Export Plug-In . SVG Version: 6.00 Build 0)  -->
<svg version="1.1" id="Слой_1" xmlns="http://www.w3.org/2000/svg" xmlns:xlink="http://www.w3.org/1999/xlink" x="0px" y="0px"
	 viewBox="0 0 212.5 149" style="enable-background:new 0 0 212.5 149;" xml:space="preserve">
<style type="text/css">
	.st0{fill:#0087A5;}
	.st1{fill:#474240;}
	.st2{fill:#4C3C37;}
	.st3{fill:#0085A3;}
	.st4{fill:#FFFFFF;}
</style>
<g>
	<g id="blue_1_">
		<path class="st0" d="M119.5,19.8l-28.1-8c0,0-2.5-0.3-2.8,2c-0.3,2.3-3.9,55.4-3.9,55.4s4.1,10.3,9.9,13.1c0,0,1.2,12.1-3.7,16.8
			c-4.9,4.7-9.4,4.9-15.5,4.7l-1.4,6.3l18.3,5.2L119.5,19.8z"/>
		<path class="st0" d="M82.9,10.5l-15.6,0.2c0,0-4.5,37.3,19.4,62.8l-0.8-9.1c0,0-16.5-9.3-15.8-51.4l10.2,0.1c0,0-1.3,10.9,7,17.3
			s0.3-4.9,0.3-4.9S82.9,23.9,82.9,10.5z"/>
	</g>
	<g id="grey">
		<path class="st1" d="M119.5,19.8l28.1,8c0,0,2.3,1,1.3,3.2c-1,2.1-26,49-26,49s-9,6.6-15.3,5.9c0,0-7.4,9.6-5.8,16.2
			c1.6,6.6,5.4,9.2,10.7,12.2l-2.1,6.1l-18.3-5.2L119.5,19.8z"/>
		<path class="st1" d="M156.1,30.3l13.1,8.4c0,0-15.9,34-49.7,43l5.5-7.3c0,0,18.9,0.8,40.6-35.2l-8.7-5.3c0,0-4.6,9.9-15.2,11
			c-10.5,1.1,2.3-4.4,2.3-4.4S148.9,41.7,156.1,30.3z"/>
	</g>
	<g id="star_5_">
		<g id="grey_6_">
			<polygon class="st2" points="21.2,90.5 29.6,95.5 21.1,84.6 			"/>
			<polygon class="st2" points="26.7,86.3 34.1,79.9 21,84.6 			"/>
			<polygon class="st2" points="24.3,79.8 20.5,70.8 21,84.6 			"/>
			<polygon class="st2" points="17.4,80 7.7,80.8 21,84.6 			"/>
			<polygon class="st2" points="15.5,86.6 13.3,96.1 21,84.7 			"/>
		</g>
		<g id="blue_7_">
			<polygon class="st3" points="26.7,86.1 29.6,95.5 21,84.6 			"/>
			<polygon class="st3" points="24.2,79.7 34,79.9 21,84.6 			"/>
			<polygon class="st3" points="17.4,80.1 20.5,70.8 21,84.6 			"/>
			<polygon class="st3" points="15.6,86.7 7.7,80.8 21,84.6 			"/>
			<polygon class="st3" points="21.3,90.5 13.3,96.1 21,84.6 			"/>
		</g>
	</g>
	<g id="star_4_">
		<g id="grey_5_">
			<polygon class="st2" points="167.4,130 168.4,139.7 172,126.3 			"/>
			<polygon class="st2" points="174,131.8 183.6,133.8 172,126.3 			"/>
			<polygon class="st2" points="177.8,126 182.7,117.5 171.9,126.3 			"/>
			<polygon class="st2" points="173.4,120.6 166.9,113.4 171.9,126.3 			"/>
			<polygon class="st2" points="167,123.1 158.1,127.1 171.9,126.3 			"/>
		</g>
		<g id="blue_6_">
			<polygon class="st3" points="174.1,131.7 168.4,139.7 171.9,126.3 			"/>
			<polygon class="st3" points="177.8,125.9 183.6,133.8 171.9,126.3 			"/>
			<polygon class="st3" points="173.3,120.6 182.6,117.5 171.9,126.3 			"/>
			<polygon class="st3" points="167,123.2 166.9,113.4 171.9,126.3 			"/>
			<polygon class="st3" points="167.5,130.1 158.1,127.1 171.9,126.3 			"/>
		</g>
	</g>
	<g id="star_3_">
		<g id="grey_4_">
			<polygon class="st2" points="186.8,103.6 187.4,113.3 191.6,100.1 			"/>
			<polygon class="st2" points="193.4,105.7 202.8,108.2 191.6,100.1 			"/>
			<polygon class="st2" points="197.4,100.1 202.7,91.8 191.5,100.1 			"/>
			<polygon class="st2" points="193.3,94.5 187.1,86.9 191.5,100.1 			"/>
			<polygon class="st2" points="186.8,96.7 177.7,100.2 191.5,100.1 			"/>
		</g>
		<g id="blue_5_">
			<polygon class="st3" points="193.5,105.6 187.4,113.3 191.5,100.1 			"/>
			<polygon class="st3" points="197.4,100 202.8,108.1 191.5,100.1 			"/>
			<polygon class="st3" points="193.2,94.5 202.7,91.9 191.5,100.1 			"/>
			<polygon class="st3" points="186.7,96.8 187.1,87 191.5,100.1 			"/>
			<polygon class="st3" points="186.9,103.6 177.7,100.2 191.5,100.1 			"/>
		</g>
	</g>
	<g id="star_2_">
		<g id="grey_3_">
			<polygon class="st2" points="188.4,73 189.6,82.7 192.9,69.2 			"/>
			<polygon class="st2" points="195.1,74.6 204.7,76.4 192.9,69.2 			"/>
			<polygon class="st2" points="198.7,68.7 203.4,60.1 192.9,69.1 			"/>
			<polygon class="st2" points="194.2,63.5 187.5,56.4 192.8,69.2 			"/>
			<polygon class="st2" points="187.9,66.1 179,70.3 192.8,69.2 			"/>
		</g>
		<g id="blue_4_">
			<polygon class="st3" points="195.2,74.5 189.6,82.6 192.9,69.2 			"/>
			<polygon class="st3" points="198.7,68.6 204.7,76.4 192.9,69.2 			"/>
			<polygon class="st3" points="194.1,63.5 203.4,60.2 192.9,69.2 			"/>
			<polygon class="st3" points="187.8,66.2 187.5,56.4 192.9,69.2 			"/>
			<polygon class="st3" points="188.5,73 179,70.3 192.9,69.2 			"/>
		</g>
	</g>
	<g id="star_1_">
		<g id="grey_2_">
			<polygon class="st2" points="15.6,60.5 24,65.5 15.5,54.6 			"/>
			<polygon class="st2" points="21.1,56.2 28.5,49.8 15.5,54.6 			"/>
			<polygon class="st2" points="18.8,49.7 15,40.7 15.4,54.6 			"/>
			<polygon class="st2" points="11.9,50 2.1,50.8 15.4,54.6 			"/>
			<polygon class="st2" points="9.9,56.6 7.7,66.1 15.5,54.6 			"/>
		</g>
		<g id="blue_3_">
			<polygon class="st3" points="21.1,56.1 24,65.5 15.5,54.6 			"/>
			<polygon class="st3" points="18.6,49.7 28.5,49.8 15.5,54.6 			"/>
			<polygon class="st3" points="11.8,50.1 15,40.7 15.5,54.6 			"/>
			<polygon class="st3" points="10,56.7 2.1,50.8 15.5,54.6 			"/>
			<polygon class="st3" points="15.8,60.4 7.7,66.1 15.5,54.6 			"/>
		</g>
	</g>
	<g id="star">
		<g id="grey_1_">
			<polygon class="st2" points="27.6,30.3 35.9,35.3 27.4,24.4 			"/>
			<polygon class="st2" points="33,26 40.4,19.6 27.4,24.4 			"/>
			<polygon class="st2" points="30.7,19.6 26.9,10.5 27.4,24.4 			"/>
			<polygon class="st2" points="23.8,19.8 14,20.6 27.4,24.4 			"/>
			<polygon class="st2" points="21.9,26.4 19.6,35.9 27.4,24.4 			"/>
		</g>
		<g id="blue_2_">
			<polygon class="st3" points="33,25.9 35.9,35.3 27.4,24.4 			"/>
			<polygon class="st3" points="30.6,19.5 40.4,19.6 27.4,24.4 			"/>
			<polygon class="st3" points="23.7,19.9 26.9,10.6 27.4,24.4 			"/>
			<polygon class="st3" points="21.9,26.5 14.1,20.6 27.4,24.4 			"/>
			<polygon class="st3" points="27.7,30.2 19.7,35.9 27.4,24.4 			"/>
		</g>
	</g>
	
		<rect id="white_1_" x="67" y="115.1" transform="matrix(0.9614 0.2752 -0.2752 0.9614 36.486 -20.3656)" class="st4" width="47.7" height="9.5"/>
</g>
</svg>
