<svg style="display:none;" version="1.1" xmlns="http://www.w3.org/2000/svg">
<g id="background">
	<rect class="st0" width="1755" height="1249"/>
</g>
<symbol id="question" class="blue" viewbox="1173 340 52 116">
	<g>
		<g>
			<path class="st1" d="M1188.1,422.6l-0.3-4.1c-1-8.9,2-18.7,10.3-28.6c7.4-8.9,11.6-15.2,11.6-22.7c0-8.4-5.3-14.2-15.7-14.2
				c-6,0-12.6,1.8-16.7,5.1l-4-10.4c5.5-4.1,14.9-6.8,23.6-6.8c19,0,27.6,11.9,27.6,24.5c0,11.1-6.3,19.3-14.2,28.6
				c-7.3,8.8-9.9,16-9.4,24.5l0.2,4.1H1188.1z M1194.2,456.2c-5.6,0-9.6-4.5-9.6-10.3c0-6.1,4.1-10.4,9.8-10.4c6,0,9.8,4.3,9.8,10.4
				c0,5.8-3.8,10.3-9.8,10.3H1194.2z"/>
		</g>
	</g>
</symbol>
<symbol id="team" class="grey" viewbox="122 24 198 124">
	<g>
		<g>
			<path class="blue" d="M213,52c2.9-1.4,6-2.3,8.9-3.7c3.7,6.5,12.3,6.3,17.1,11.6c2.1,2.1,3.6,4.9,3.5,8c0,5.6-0.1,11.3-0.2,16.9
				c-2.5,7.8-5.1,16.3-11.7,21.7c-3.9,3.9-10.2,5.4-15.3,2.9c-6.4-3.6-10.6-10-12.6-17c-0.9-3.6-3.8-7-2.6-10.9
				c1.8-5.4-0.5-11.1,0.9-16.5C202.7,59.3,207.7,55,213,52z"/>
			<path class="blue" d="M189.1,115.8c6.3-2.1,12.2-5.2,17.9-8.6c2.2,4.7,4.8,9.6,9.5,12.3c2.3,1.4,5.4,1.4,7.6,0
				c4.6-2.9,7.6-7.7,10.3-12.3c7.1,5.4,16.2,6.7,23.4,11.8c3.8,2.5,4.9,7.3,6.2,11.3c1.6,5.6,3.3,11.3,3.5,17.1
				c-31.1,0.1-62.2,0.1-93.4,0c0.2-6.7,2.3-13.2,4.1-19.6C179.6,122.3,183.5,117.5,189.1,115.8z"/>
		</g>
		<g>
			<path d="M158.9,31.8c3.7-1.2,7.1-3.2,9-6.8c4.3,1.9,9.1,3,12.9,5.9c3.5,2.7,6.8,6,8.3,10.2c1,6.2-0.8,12.7,1.1,18.8
				c-2.3,8.5-4.7,17.8-11.9,23.7c-2.5,2.5-6,3.6-9.5,3.2c-4.5,0.4-8.2-2.6-11.1-5.7c-5.3-5.2-7.2-12.7-9.4-19.5
				c0.1-5.2-0.1-10.5-0.3-15.7C147.5,39.3,152.9,33.8,158.9,31.8z"/>
			<path d="M129,99.1c6.4-8.9,18.8-8.5,26.6-15.5c3.3,5.7,7.2,12.6,14.2,13.9c6.9-1.4,10.7-8.2,13.7-14
				c2.8,2.4,6,4.3,9.4,5.7c1.8,0.9,4.2,1.3,5.2,3.3c1.8,3.9,3.1,8,5.4,11.7c-4.5,3.5-10,5.3-14.9,8.4c-5.6,2.9-11.7,5.8-14.4,12
				c-17.3,0.2-34.6,0.1-51.9,0.1C123.1,115.9,125,107,129,99.1z"/>
		</g>
		<g>
			<path class="st2" d="M264.9,28.3c3-1.4,6.2-2.3,9.2-3.9c1.9,4.2,6.1,6.1,10.1,7.6c6.1,2.1,10.9,8.3,10.2,14.9
				c-0.3,4.9,0,9.9-0.4,14.8c-2.4,7.1-4.6,14.9-10.2,20.3c-3.4,3.4-8.1,6.2-13.1,5.5c-4.7-1-8.3-4.5-11.3-8
				c-3.9-4.7-4.9-10.9-7.3-16.3c-1.8-3.3,0.9-6.7,0.4-10.1c0.1-3.4-1.6-6.9-0.3-10.2C253.7,36.2,259.2,31.5,264.9,28.3z"/>
			<path class="st2" d="M249.6,89c3.1-1.2,5.8-3.3,8.4-5.3c2.4,2.1,3.2,5.5,5.3,7.9c2.4,2.8,5.6,5.9,9.5,5.8
				c6.6-1.7,10.2-8.1,13.8-13.3c7.9,6.6,20,6.4,26.3,15.1c3.7,7.9,5.9,16.7,6.6,25.4c-17.1,0.2-34.3,0.1-51.4,0.1
				c-2.1-3.2-4.6-6.3-8-8.1c-6.9-4-13.9-8-21.2-11.3c1.1-4.1,2.8-8,4.5-11.9C244.3,90.7,247.4,90.1,249.6,89z"/>
		</g>
	</g>
</symbol>
	<symbol id="team-2" class="white" viewbox="122 24 198 124">
		<g>
			<g>
				<path class="light-grey" d="M213,52c2.9-1.4,6-2.3,8.9-3.7c3.7,6.5,12.3,6.3,17.1,11.6c2.1,2.1,3.6,4.9,3.5,8c0,5.6-0.1,11.3-0.2,16.9
				c-2.5,7.8-5.1,16.3-11.7,21.7c-3.9,3.9-10.2,5.4-15.3,2.9c-6.4-3.6-10.6-10-12.6-17c-0.9-3.6-3.8-7-2.6-10.9
				c1.8-5.4-0.5-11.1,0.9-16.5C202.7,59.3,207.7,55,213,52z"/>
				<path class="light-grey" d="M189.1,115.8c6.3-2.1,12.2-5.2,17.9-8.6c2.2,4.7,4.8,9.6,9.5,12.3c2.3,1.4,5.4,1.4,7.6,0
				c4.6-2.9,7.6-7.7,10.3-12.3c7.1,5.4,16.2,6.7,23.4,11.8c3.8,2.5,4.9,7.3,6.2,11.3c1.6,5.6,3.3,11.3,3.5,17.1
				c-31.1,0.1-62.2,0.1-93.4,0c0.2-6.7,2.3-13.2,4.1-19.6C179.6,122.3,183.5,117.5,189.1,115.8z"/>
			</g>
			<g>
				<path d="M158.9,31.8c3.7-1.2,7.1-3.2,9-6.8c4.3,1.9,9.1,3,12.9,5.9c3.5,2.7,6.8,6,8.3,10.2c1,6.2-0.8,12.7,1.1,18.8
				c-2.3,8.5-4.7,17.8-11.9,23.7c-2.5,2.5-6,3.6-9.5,3.2c-4.5,0.4-8.2-2.6-11.1-5.7c-5.3-5.2-7.2-12.7-9.4-19.5
				c0.1-5.2-0.1-10.5-0.3-15.7C147.5,39.3,152.9,33.8,158.9,31.8z"/>
				<path d="M129,99.1c6.4-8.9,18.8-8.5,26.6-15.5c3.3,5.7,7.2,12.6,14.2,13.9c6.9-1.4,10.7-8.2,13.7-14
				c2.8,2.4,6,4.3,9.4,5.7c1.8,0.9,4.2,1.3,5.2,3.3c1.8,3.9,3.1,8,5.4,11.7c-4.5,3.5-10,5.3-14.9,8.4c-5.6,2.9-11.7,5.8-14.4,12
				c-17.3,0.2-34.6,0.1-51.9,0.1C123.1,115.9,125,107,129,99.1z"/>
			</g>
			<g>
				<path class="st2" d="M264.9,28.3c3-1.4,6.2-2.3,9.2-3.9c1.9,4.2,6.1,6.1,10.1,7.6c6.1,2.1,10.9,8.3,10.2,14.9
				c-0.3,4.9,0,9.9-0.4,14.8c-2.4,7.1-4.6,14.9-10.2,20.3c-3.4,3.4-8.1,6.2-13.1,5.5c-4.7-1-8.3-4.5-11.3-8
				c-3.9-4.7-4.9-10.9-7.3-16.3c-1.8-3.3,0.9-6.7,0.4-10.1c0.1-3.4-1.6-6.9-0.3-10.2C253.7,36.2,259.2,31.5,264.9,28.3z"/>
				<path class="st2" d="M249.6,89c3.1-1.2,5.8-3.3,8.4-5.3c2.4,2.1,3.2,5.5,5.3,7.9c2.4,2.8,5.6,5.9,9.5,5.8
				c6.6-1.7,10.2-8.1,13.8-13.3c7.9,6.6,20,6.4,26.3,15.1c3.7,7.9,5.9,16.7,6.6,25.4c-17.1,0.2-34.3,0.1-51.4,0.1
				c-2.1-3.2-4.6-6.3-8-8.1c-6.9-4-13.9-8-21.2-11.3c1.1-4.1,2.8-8,4.5-11.9C244.3,90.7,247.4,90.1,249.6,89z"/>
			</g>
		</g>
	</symbol>
<symbol id="2-years" viewbox="355 24 209 120" class="blue">
	<g>
		<g>
			<path class="st1" d="M475.4,135.2c0-5.6,0.4-10.5,1.2-14.9c0.8-4.4,2.3-8.4,4.3-12c2-3.6,4.7-7,8.2-10c3.4-3.1,7.8-6.1,13-9.1
				c5.6-3.1,10.2-5.6,14-7.6c3.7-2,6.7-3.8,8.9-5.3c2.2-1.5,3.8-2.9,4.7-4.2c0.9-1.2,1.4-2.7,1.4-4.4c0-3.3-1.2-6-3.6-8
				c-2.4-2-5.8-3-10.1-3c-5,0-9.3,1.2-13,3.6c-3.7,2.4-7.2,5.6-10.7,9.5l-18.1-21c1.9-2.1,4.4-4.2,7.6-6.2c3.2-2,6.8-3.8,10.8-5.4
				c4-1.6,8.4-2.9,13.2-3.8c4.8-0.9,9.8-1.4,15-1.4c12.8,0,22.6,2.8,29.4,8.4c6.8,5.6,10.2,13.1,10.2,22.6c0,3.9-0.6,7.4-1.9,10.5
				c-1.2,3.1-2.9,5.8-4.9,8.3c-2,2.4-4.3,4.6-6.8,6.4c-2.5,1.8-5,3.5-7.6,5.1c-1.8,1.1-3.9,2.3-6.4,3.7c-2.5,1.4-5,2.9-7.4,4.4
				c-2.4,1.5-4.7,3-6.8,4.4c-2.1,1.5-3.6,2.8-4.7,4H564v25.6H475.4z"/>
		</g>
	</g>
	<g>
		<path d="M438.2,105.4l-4.6-1.2c0.1-1.2,0.2-2.4,0.2-3.5c0-1.3-0.1-2.7-0.2-3.9l4.6-1.3c1.5-0.4,2.4-2,1.9-3.4
			l-1.5-5.6c-0.4-1.5-2-2.4-3.4-1.9l-4.6,1.3c-1-2.3-2.3-4.5-3.8-6.5l3.4-3.4c1.1-1.1,1.1-2.9,0-3.9l-4.1-4c-1.1-1.1-2.9-1.1-3.9,0
			l-3.3,3.4c-2-1.5-4.2-2.7-6.5-3.7l1.2-4.7c0.4-1.5-0.5-3-2-3.4l-5.6-1.4c-1.5-0.4-3,0.5-3.4,2l-1.2,4.6c-1.2-0.1-2.4-0.2-3.5-0.2
			c-1.3,0-2.7,0.1-3.9,0.2l-1.3-4.6c-0.4-1.5-2-2.4-3.4-1.9l-5.6,1.5c-1.5,0.4-2.4,2-1.9,3.4l1.3,4.6c-2.3,1-4.5,2.3-6.5,3.8
			l-3.4-3.4c-1.1-1.1-2.9-1.1-3.9,0l-4,4.1c-1.1,1.1-1.1,2.9,0,3.9l3.4,3.3c-1.5,2-2.7,4.2-3.7,6.5l-4.7-1.2c-1.5-0.4-3,0.5-3.4,2
			l-1.4,5.6c-0.4,1.5,0.5,3,2,3.4l4.6,1.2c-0.1,1.2-0.2,2.4-0.2,3.5c0,1.3,0.1,2.7,0.2,3.9l-4.6,1.3c-1.5,0.4-2.4,2-1.9,3.4l1.5,5.6
			c0.4,1.5,2,2.4,3.4,1.9l4.6-1.3c1,2.3,2.3,4.5,3.8,6.5l-3.4,3.4c-1.1,1.1-1.1,2.9,0,3.9l4.1,4c1.1,1.1,2.9,1.1,3.9,0l3.3-3.4
			c2,1.5,4.2,2.7,6.5,3.7l-1.2,4.7c-0.4,1.5,0.5,3,2,3.4l5.6,1.4c1.5,0.4,3-0.5,3.4-2l1.2-4.6c1.2,0.1,2.4,0.2,3.5,0.2
			c1.3,0,2.7-0.1,3.9-0.2l1.3,4.6c0.4,1.5,2,2.4,3.4,1.9l5.6-1.5c1.5-0.4,2.4-2,1.9-3.4l-1.3-4.6c2.3-1,4.5-2.3,6.5-3.8l3.4,3.4
			c1.1,1.1,2.9,1.1,3.9,0l4-4.1c1.1-1.1,1.1-2.9,0-3.9l-3.4-3.3c1.5-2,2.7-4.2,3.7-6.5l4.7,1.2c1.5,0.4,3-0.5,3.4-2l1.4-5.6
			C440.6,107.4,439.6,105.8,438.2,105.4z"/>
		<path class="grey" d="M473.7,55.7l-3.5-1.5c0.1-0.9,0.2-1.7,0.2-2.6c0-1.2-0.1-2.4-0.3-3.6l3.2-1.3c1.4-0.6,2.1-2.2,1.5-3.6
			l-2.2-5.3c-0.6-1.4-2.2-2.1-3.6-1.5l-3.5,1.4c-1.3-1.6-2.8-3.1-4.5-4.3l1.4-3.2c0.6-1.4-0.1-3.1-1.5-3.7l-5.3-2.2
			c-1.4-0.6-3.1,0.1-3.7,1.5l-1.5,3.5c-0.9-0.1-1.7-0.2-2.6-0.2c-1.2,0-2.4,0.1-3.6,0.3l-1.3-3.2c-0.6-1.4-2.2-2.1-3.6-1.5l-5.3,2.2
			c-1.4,0.6-2.1,2.2-1.5,3.6l1.4,3.5c-1.6,1.3-3.1,2.8-4.3,4.5l-3.2-1.4c-1.4-0.6-3.1,0.1-3.7,1.5l-2.2,5.3
			c-0.6,1.4,0.1,3.1,1.5,3.7l3.5,1.5c-0.1,0.9-0.2,1.7-0.2,2.6c0,1.2,0.1,2.4,0.3,3.6l-3.2,1.3c-1.4,0.6-2.1,2.2-1.5,3.6l2.2,5.3
			c0.6,1.4,2.2,2.1,3.6,1.5l3.5-1.4c1.3,1.6,2.8,3.1,4.5,4.3l-1.4,3.2c-0.6,1.4,0.1,3.1,1.5,3.7l5.3,2.2c1.4,0.6,3.1-0.1,3.7-1.5
			l1.5-3.5c0.9,0.1,1.7,0.2,2.6,0.2c1.2,0,2.4-0.1,3.6-0.3l1.3,3.2c0.6,1.4,2.2,2.1,3.6,1.5l5.3-2.2c1.4-0.6,2.1-2.2,1.5-3.6
			l-1.4-3.5c1.6-1.3,3.1-2.8,4.3-4.5l3.2,1.4c1.4,0.6,3.1-0.1,3.7-1.5l2.2-5.3C475.8,58,475.1,56.3,473.7,55.7z"/>
		<circle class="white" cx="447.9" cy="51.7" r="10.6"/>
		<circle class="white" cx="397.6" cy="100.7" r="22.7"/>
	</g>
</symbol>
<symbol id="tasks" viewbox="643 14 145 144" class="white">
	<g>
		<rect x="671.9" y="27.8" transform="matrix(0.6414 -0.7672 0.7672 0.6414 191.8998 579.6492)" class="grey" width="88.2" height="113.5"/>
		<g>
			<rect x="670.7" y="32.2" transform="matrix(0.58 -0.8146 0.8146 0.58 227.7885 619.6531)" class="blue" width="88.2" height="113.5"/>
			<rect x="647.9" y="61.2" transform="matrix(0.58 -0.8146 0.8146 0.58 233.0655 583.542)" width="69" height="9.1"/>
			<g>
				<g>
					<g>
						<ellipse transform="matrix(0.58 -0.8146 0.8146 0.58 204.3936 620.8891)" cx="704.3" cy="112.2" rx="8.3" ry="8.3"/>
						<path class="grey" d="M707,116c-0.2,0.3-0.6,0.6-1.1,0.6l-3.4,0.4c-0.8,0.1-1.6-0.5-1.7-1.4c-0.1-0.8,0.5-1.6,1.4-1.7l1.9-0.2
							l-0.4-5.4c-0.1-0.8,0.6-1.6,1.4-1.6c0.8-0.1,1.6,0.6,1.6,1.4l0.6,6.9C707.3,115.3,707.2,115.7,707,116z"/>
					</g>
					<g>
						<g>
							<g>
								<rect x="701.7" y="80.1" transform="matrix(0.58 -0.8146 0.8146 0.58 237.325 622.8118)" width="41.9" height="2.3"/>
							</g>
							<g>
								<rect x="709.2" y="88.6" transform="matrix(0.58 -0.8146 0.8146 0.58 230.9825 627.5203)" width="29.7" height="2.3"/>
							</g>
						</g>
					</g>
				</g>
				<g>
					<g>
						<ellipse transform="matrix(0.58 -0.8146 0.8146 0.58 207.2166 601.2603)" class="st3" cx="686.7" cy="99.7" rx="8.3" ry="8.3"/>
						<path class="grey" d="M689.3,103.4c-0.2,0.3-0.6,0.6-1.1,0.6l-3.4,0.4c-0.8,0.1-1.6-0.5-1.7-1.4c-0.1-0.8,0.5-1.6,1.4-1.7
							l1.9-0.2l-0.4-5.4c-0.1-0.8,0.6-1.6,1.4-1.6c0.8-0.1,1.6,0.6,1.6,1.4l0.6,6.9C689.6,102.8,689.5,103.1,689.3,103.4z"/>
					</g>
					<g>
						<g>
							<g>
								<rect x="684.6" y="66.8" transform="matrix(0.58 -0.8146 0.8146 0.58 240.9827 603.2996)"  width="41.9" height="2.3"/>
							</g>
							<g>
								<rect x="695.2" y="81.3" transform="matrix(0.58 -0.8146 0.8146 0.58 227.9052 607.0411)"  width="14.9" height="2.3"/>
							</g>
						</g>
					</g>
				</g>
				<g>
					<g>
						<ellipse transform="matrix(0.58 -0.8146 0.8146 0.58 201.6516 640.0123)" class="st3" cx="721.5" cy="124.4" rx="8.3" ry="8.3"/>
						<path class="grey" d="M724.1,128.2c-0.2,0.3-0.6,0.6-1.1,0.6l-3.4,0.4c-0.8,0.1-1.6-0.5-1.7-1.4c-0.1-0.8,0.5-1.6,1.4-1.7
							l1.9-0.2l-0.4-5.4c-0.1-0.8,0.6-1.6,1.4-1.6c0.8-0.1,1.6,0.6,1.6,1.4l0.6,6.9C724.4,127.5,724.3,127.9,724.1,128.2z"/>
					</g>
					<g>
						<g>
							<g>
								<rect x="718.6" y="92.7" transform="matrix(0.58 -0.8146 0.8146 0.58 234.1118 641.8631)"  width="41.9" height="2.3"/>
							</g>
							<g>
								<rect x="727.6" y="104.2" transform="matrix(0.58 -0.8146 0.8146 0.58 224.462 646.0983)"  width="22.4" height="2.3"/>
							</g>
						</g>
					</g>
				</g>
			</g>
			<rect x="756.3" y="92.1" transform="matrix(0.58 -0.8146 0.8146 0.58 245.3431 662.324)" width="17.4" height="2.3"/>
		</g>
		<g>
			<g>
			</g>
		</g>
	</g>
</symbol>
<symbol id="urgent" viewbox="854 20 232 153" class="blue">
	<g>
		<path class="grey" d="M913.5,165.3c0.4,2.3-2.3,4.6-6.1,5.2l-9.6,1.6c-3.7,0.6-7.1-0.7-7.4-3l-5.8-33.8c-0.4-2.3,2.3-4.6,6.1-5.2
			l9.6-1.6c3.7-0.6,7.1,0.7,7.4,3L913.5,165.3z"/>
		<ellipse transform="matrix(0.9858 -0.1677 0.1677 0.9858 -0.2809 167.9778)" class="grey" cx="994.2" cy="85.7" rx="19" ry="19"/>
		<polygon class="white" points="986.1,111 1001.5,103.5 995.2,66.4 978.2,64.4 "/>
		<ellipse transform="matrix(0.9858 -0.1677 0.1677 0.9858 -5.4284 148.0385)" cx="873.7" cy="106.2" rx="19" ry="19"/>
		<path class="grey" d="M1003.3,138.9c0.6,3.3-1.7,6.5-5,7.1l0,0c-3.3,0.6-6.5-1.7-7.1-5L973.1,34.4c-0.6-3.3,1.7-6.5,5-7.1l0,0
			c3.3-0.6,6.5,1.7,7.1,5L1003.3,138.9z"/>
		<path class="grey" d="M911.5,118.6c0.6,3.7-1.9,7.3-5.6,7.9l-21.2,3.6c-3.7,0.6-7.3-1.9-7.9-5.6l-6.2-36.6
			c-0.6-3.7,1.9-7.3,5.6-7.9l21.2-3.6c3.7-0.6,7.3,1.9,7.9,5.6L911.5,118.6z"/>
		<path d="M905.3,81.9l3.1,18.3l3.1,18.3c0,0,43.5-3.3,79.7,22.4l-9.1-53.3l-9.1-53.3C947.4,70.7,905.3,81.9,905.3,81.9
			z"/>
		<path class="white" d="M889.7,90.1l-18.2,3.1l0.3,1.9l18.2-3.1c1.4-0.2,2.4-1.6,2.1-3c-0.1-0.3-0.2-0.7-0.4-0.9
			C891.6,89.1,890.8,89.9,889.7,90.1z"/>
		<rect x="884.4" y="128.1" transform="matrix(0.9858 -0.1677 0.1677 0.9858 -9.6303 152.1926)" width="23.5" height="10"/>
		<path class="grey" d="M1013,82.7l-14.6,2.5l3.1,18C1009.5,99.9,1014.4,91.5,1013,82.7z"/>
		<polygon class="white" points="994.3,85.9 997.6,105.4 1001.5,103.5 1001.5,103.2 998.4,85.2 		"/>
		<path d="M876.5,122.3l-0.3-1.9l-2-11.7l-0.3-1.9l-0.1-0.4l-18.7,3.2c1.9,10.2,11.6,17.1,21.9,15.3c0,0,0,0,0,0
			c0-0.1-0.1-0.3-0.1-0.4L876.5,122.3z"/>
		<path class="grey" d="M994.3,85.9l-12.1,2.1l3.9,23.1l5.1,29.9c0.6,3.3,3.7,5.6,7.1,5c3.3-0.6,5.6-3.7,5-7.1l-5.7-33.5L994.3,85.9z
			"/>
		<path class="grey" d="M894.5,102.9c0.1,1.3-0.8,2.5-2.2,2.8l-18.2,3.1l2,11.7l18.2-3.1c1.1-0.2,1.9-1,2.1-2
			c0.2,0.3,0.3,0.6,0.4,0.9c0.2,1.4-0.7,2.8-2.1,3l-18.2,3.1l0.4,2.2c0,0.1,0.1,0.3,0.1,0.4c0.7,3,3.3,5.1,6.2,5.3l24.3-4.1
			c2.9-1.2,4.6-4.3,4.1-7.4l-3.1-18.1L894.5,102.9z"/>
		<path d="M982.2,87.9l-6.7,1.1l-67.1,11.4l3.1,18.1c0,0,43.5-3.3,79.7,22.4l-5.1-29.9L982.2,87.9z"/>
		<path class="white" d="M894.7,119.2c1.4-0.2,2.4-1.6,2.1-3c-0.1-0.3-0.2-0.7-0.4-0.9c-0.2,1-1,1.8-2.1,2l-18.2,3.1l0.3,1.9
			L894.7,119.2z"/>
		<path class="white" d="M874.1,108.7l18.2-3.1"/>
		<path class="st1" d="M1027.2,41c0,0,0.3,0.2,0.8,0.5c0.3,0.2,0.6,0.3,1,0.6c0.2,0.1,0.4,0.2,0.6,0.4c0.2,0.1,0.5,0.3,0.7,0.5
			c0.5,0.3,1,0.7,1.6,1.1c0.6,0.4,1.2,0.9,1.8,1.4c0.7,0.5,1.3,1.1,2,1.6c0.4,0.3,0.7,0.6,1.1,0.9c0.4,0.3,0.7,0.7,1.1,1
			c0.7,0.7,1.4,1.5,2.2,2.3c0.4,0.4,0.7,0.8,1.1,1.3c0.4,0.4,0.7,0.9,1.1,1.3c1.5,1.8,2.8,3.9,4.1,6.1c1.2,2.2,2.4,4.6,3.4,7.1
			c1,2.5,1.7,5.1,2.3,7.8c0.5,2.7,0.9,5.4,1.1,8.1c0.1,2.7,0,5.3-0.2,7.9c-0.3,2.5-0.7,5-1.3,7.2c-0.1,0.6-0.3,1.1-0.5,1.7
			c-0.2,0.5-0.3,1.1-0.5,1.6c-0.4,1-0.7,2-1.1,3c-0.2,0.5-0.4,0.9-0.6,1.4c-0.2,0.4-0.4,0.9-0.6,1.3c-0.4,0.8-0.8,1.6-1.2,2.3
			c-0.4,0.7-0.8,1.4-1.1,2c-0.4,0.6-0.7,1.1-1.1,1.6c-0.2,0.2-0.3,0.5-0.5,0.7c-0.2,0.2-0.3,0.4-0.4,0.6c-0.3,0.4-0.5,0.7-0.7,0.9
			c-0.4,0.5-0.6,0.8-0.6,0.8s0.1-0.3,0.4-0.9c0.3-0.6,0.7-1.4,1.2-2.4c0.2-0.5,0.5-1.1,0.8-1.7c0.2-0.7,0.5-1.3,0.8-2.1
			c0.6-1.5,1.1-3.2,1.7-5.1c0.3-0.9,0.5-1.9,0.8-3c0.2-1,0.5-2.1,0.6-3.2c0.1-0.5,0.2-1.1,0.3-1.7c0.1-0.6,0.1-1.1,0.2-1.7
			c0.2-1.2,0.2-2.3,0.3-3.6c0.1-2.4,0.1-4.9-0.1-7.5c-0.2-2.5-0.6-5.1-1.1-7.6c-0.5-2.5-1.3-5-2.1-7.4c-0.9-2.4-1.8-4.7-2.9-6.9
			c-0.6-1.1-1.1-2.1-1.7-3.1c-0.3-0.5-0.6-1-0.9-1.5c-0.3-0.5-0.6-0.9-0.9-1.4c-0.6-0.9-1.3-1.8-1.9-2.7c-0.7-0.8-1.3-1.6-1.9-2.4
			c-1.3-1.5-2.5-2.8-3.6-4c-0.6-0.6-1.1-1.1-1.6-1.6c-0.5-0.5-1-0.9-1.4-1.3c-0.8-0.8-1.6-1.3-2.1-1.8
			C1027.4,41.2,1027.2,41,1027.2,41z"/>
		<path class="st1" d="M1048.8,20c0,0,0.4,0.2,1.2,0.7c0.4,0.2,0.9,0.5,1.4,0.8c0.3,0.2,0.6,0.3,0.9,0.5c0.3,0.2,0.6,0.4,1,0.6
			c0.7,0.5,1.5,1,2.3,1.5c0.8,0.6,1.7,1.2,2.6,1.9c0.9,0.7,1.9,1.5,2.9,2.3c0.5,0.4,1,0.9,1.5,1.3c0.5,0.5,1,0.9,1.5,1.4
			c0.5,0.5,1,1,1.5,1.6c0.5,0.5,1,1.1,1.6,1.7c0.5,0.6,1,1.2,1.5,1.8c0.5,0.6,1.1,1.2,1.6,1.9c0.5,0.7,1,1.3,1.5,2
			c0.5,0.7,1,1.4,1.5,2.1c0.2,0.4,0.5,0.7,0.7,1.1c0.2,0.4,0.5,0.8,0.7,1.1c0.5,0.8,0.9,1.5,1.4,2.3c0.9,1.6,1.8,3.2,2.5,4.9
			c0.4,0.9,0.8,1.7,1.2,2.6c0.4,0.9,0.7,1.8,1.1,2.6c1.4,3.6,2.4,7.3,3.3,11.1c0.8,3.8,1.3,7.7,1.5,11.5c0,1,0.1,1.9,0.1,2.9
			c0,0.9,0,1.9,0,2.8c0,1.9-0.2,3.7-0.3,5.5c-0.1,0.9-0.2,1.8-0.3,2.7c-0.1,0.4-0.1,0.9-0.2,1.3c-0.1,0.4-0.2,0.9-0.2,1.3
			c-0.2,0.9-0.3,1.7-0.5,2.5c-0.2,0.8-0.4,1.6-0.6,2.5c-0.2,0.8-0.4,1.6-0.7,2.4c-0.2,0.8-0.5,1.5-0.7,2.3c-0.3,0.7-0.5,1.5-0.8,2.2
			c-0.3,0.7-0.5,1.4-0.8,2.1c-0.3,0.7-0.6,1.3-0.8,1.9c-0.3,0.6-0.5,1.3-0.8,1.8c-0.6,1.2-1.1,2.3-1.7,3.3c-0.6,1-1.1,2-1.6,2.8
			c-0.5,0.8-1.1,1.6-1.5,2.3c-0.2,0.3-0.4,0.7-0.6,1c-0.2,0.3-0.4,0.6-0.6,0.8c-0.4,0.5-0.7,1-1,1.3c-0.5,0.7-0.8,1.1-0.8,1.1
			s0.2-0.4,0.6-1.2c0.2-0.4,0.4-0.9,0.7-1.5c0.1-0.3,0.3-0.6,0.5-0.9c0.1-0.3,0.3-0.7,0.5-1.1c0.3-0.7,0.7-1.6,1.1-2.5
			c0.4-0.9,0.8-1.9,1.2-3c0.8-2.1,1.6-4.6,2.4-7.2c0.4-1.3,0.7-2.7,1.1-4.2c0.2-0.7,0.3-1.5,0.5-2.2c0.2-0.8,0.3-1.5,0.4-2.3
			c0.1-0.8,0.3-1.6,0.4-2.4c0.1-0.8,0.2-1.6,0.3-2.4c0.2-1.6,0.3-3.3,0.4-5c0.1-3.4,0.1-7-0.1-10.6c-0.3-3.6-0.8-7.2-1.5-10.8
			c-0.8-3.6-1.8-7.1-3-10.5c-1.2-3.4-2.7-6.6-4.2-9.7c-0.8-1.5-1.6-3-2.5-4.4c-0.4-0.7-0.8-1.4-1.3-2.1c-0.4-0.7-0.9-1.3-1.3-2
			c-0.4-0.7-0.9-1.3-1.3-1.9c-0.5-0.6-0.9-1.2-1.3-1.8c-0.9-1.2-1.8-2.3-2.7-3.4c-1.8-2.1-3.5-4-5.1-5.6c-0.8-0.8-1.6-1.5-2.3-2.2
			c-0.7-0.7-1.4-1.3-2-1.8c-0.3-0.3-0.6-0.5-0.9-0.8c-0.3-0.2-0.5-0.5-0.8-0.7c-0.5-0.4-0.9-0.8-1.3-1
			C1049.1,20.4,1048.8,20,1048.8,20z"/>
		<path class="st1" d="M1037.2,29.9c0,0,0.4,0.2,1,0.6c0.3,0.2,0.7,0.4,1.2,0.7c0.2,0.1,0.5,0.3,0.8,0.4c0.3,0.2,0.6,0.4,0.9,0.6
			c0.6,0.4,1.3,0.8,2,1.3c0.7,0.5,1.5,1.1,2.3,1.7c0.8,0.6,1.6,1.3,2.5,2c0.4,0.4,0.9,0.8,1.3,1.2c0.4,0.4,0.9,0.8,1.3,1.3
			c0.9,0.9,1.8,1.8,2.7,2.8c0.4,0.5,0.9,1,1.3,1.6c0.5,0.5,0.9,1.1,1.3,1.6c0.4,0.6,0.9,1.1,1.3,1.7c0.4,0.6,0.8,1.2,1.3,1.8
			c0.2,0.3,0.4,0.6,0.6,0.9c0.2,0.3,0.4,0.7,0.6,1c0.4,0.7,0.8,1.3,1.2,2c0.7,1.4,1.5,2.8,2.2,4.3c0.3,0.7,0.7,1.5,1,2.2
			c0.3,0.8,0.6,1.5,0.9,2.3c1.2,3.1,2.1,6.3,2.9,9.6c0.7,3.3,1.1,6.6,1.3,10c0,0.8,0.1,1.7,0.1,2.5c0,0.8,0,1.6,0,2.4
			c0,1.6-0.2,3.2-0.3,4.8c-0.1,0.8-0.2,1.6-0.3,2.3c-0.1,0.4-0.1,0.8-0.2,1.1c-0.1,0.4-0.1,0.8-0.2,1.1c-0.1,0.7-0.3,1.5-0.4,2.2
			c-0.2,0.7-0.3,1.4-0.5,2.1c-0.2,0.7-0.4,1.4-0.6,2c-0.2,0.7-0.4,1.3-0.6,2c-0.5,1.3-0.9,2.5-1.4,3.7c-0.2,0.6-0.5,1.1-0.7,1.7
			c-0.2,0.5-0.5,1.1-0.7,1.6c-0.5,1-1,2-1.5,2.9c-0.5,0.9-1,1.7-1.4,2.5c-0.5,0.7-0.9,1.4-1.3,2c-0.2,0.3-0.4,0.6-0.6,0.9
			c-0.2,0.3-0.4,0.5-0.5,0.7c-0.3,0.4-0.6,0.8-0.9,1.1c-0.5,0.6-0.7,0.9-0.7,0.9s0.2-0.4,0.5-1.1c0.2-0.3,0.4-0.8,0.6-1.3
			c0.3-0.5,0.5-1.1,0.8-1.7c0.3-0.6,0.6-1.4,1-2.2c0.3-0.8,0.7-1.7,1-2.6c0.7-1.8,1.4-3.9,2.1-6.3c0.3-1.2,0.6-2.4,0.9-3.6
			c0.1-0.6,0.3-1.3,0.4-1.9c0.1-0.7,0.3-1.3,0.4-2c0.1-0.7,0.2-1.4,0.3-2.1c0.1-0.7,0.2-1.4,0.3-2.1c0.2-1.4,0.3-2.9,0.4-4.4
			c0.1-3,0.1-6.1-0.1-9.2c-0.3-3.1-0.7-6.3-1.3-9.4c-0.7-3.1-1.6-6.1-2.6-9.1c-1.1-2.9-2.3-5.8-3.6-8.4c-0.7-1.3-1.4-2.6-2.1-3.8
			c-0.4-0.6-0.7-1.2-1.1-1.8c-0.4-0.6-0.8-1.2-1.1-1.7c-0.4-0.6-0.8-1.1-1.2-1.7c-0.4-0.5-0.8-1.1-1.2-1.6c-0.8-1-1.6-2-2.3-2.9
			c-1.6-1.8-3.1-3.5-4.5-4.9c-0.7-0.7-1.4-1.3-2-1.9c-0.6-0.6-1.2-1.1-1.7-1.6c-0.5-0.5-1-0.9-1.4-1.3c-0.4-0.4-0.8-0.7-1.1-0.9
			C1037.5,30.1,1037.2,29.9,1037.2,29.9z"/>
	</g>
</symbol>
	<symbol id="planning" viewbox="1154 11 191 168">
		<path class="blue" d="M1344.8,32.5v146h-164.1l-26.4-26.4V32.5c0-5.6,4.5-10.1,10.1-10.1h170.2
		C1340.2,22.3,1344.8,26.9,1344.8,32.5z"/>
		<g class="grey">
			<path class="st2" d="M1344.8,52.7h-190.5V32.5c0-5.6,4.5-10.1,10.1-10.1h170.2c5.6,0,10.1,4.5,10.1,10.1v20.2H1344.8z"/>
			<polygon class="st2" points="1180.7,152.1 1154.3,152.1 1180.7,178.5 		"/>
		</g>
		<g class="light-grey">
			<rect x="1286.3" y="69.5" class="st5" width="13.9" height="13.9"/>
			<rect x="1308.2" y="92.9" class="st5" width="13.9" height="13.9"/>
			<rect x="1286.3" y="92.9" class="st5" width="13.9" height="13.9"/>
			<rect x="1308.2" y="116.2" class="st5" width="13.9" height="13.9"/>
			<rect x="1286.3" y="116.2" class="st5" width="13.9" height="13.9"/>
			<rect x="1308.2" y="139.6" class="st5" width="13.9" height="13.9"/>
			<rect x="1286.3" y="139.6" class="st5" width="13.9" height="13.9"/>
		</g>
		<g class="white">
			<rect x="1264.5" y="69.5" class="st3" width="13.9" height="13.9"/>
			<rect x="1242.6" y="69.5" class="st3" width="13.9" height="13.9"/>
			<rect x="1220.7" y="69.5" class="st3" width="13.9" height="13.9"/>
			<rect x="1198.8" y="69.5" class="st3" width="13.9" height="13.9"/>
			<rect x="1176.9" y="69.5" class="st3" width="13.9" height="13.9"/>
			<rect x="1264.5" y="92.9" class="st3" width="13.9" height="13.9"/>
			<rect x="1242.6" y="92.9" class="st3" width="13.9" height="13.9"/>
			<rect x="1220.7" y="92.9" class="st3" width="13.9" height="13.9"/>
			<rect x="1198.8" y="92.9" class="st3" width="13.9" height="13.9"/>
			<rect x="1176.9" y="92.9" class="st3" width="13.9" height="13.9"/>
			<rect x="1264.5" y="116.2" class="st3" width="13.9" height="13.9"/>
			<rect x="1242.6" y="116.2" class="st3" width="13.9" height="13.9"/>
			<rect x="1220.7" y="116.2" class="st3" width="13.9" height="13.9"/>
			<rect x="1198.8" y="116.2" class="st3" width="13.9" height="13.9"/>
			<rect x="1176.9" y="116.2" class="st3" width="13.9" height="13.9"/>
			<rect x="1264.5" y="139.6" class="st3" width="13.9" height="13.9"/>
			<rect x="1242.6" y="139.6" class="st3" width="13.9" height="13.9"/>
			<rect x="1220.7" y="139.6" class="st3" width="13.9" height="13.9"/>
			<path class="st3" d="M1315.2,39.3h-16v-15c0-4.4,3.6-8,8-8l0,0c4.4,0,8,3.6,8,8V39.3z"/>
			<path class="st3" d="M1199.9,39.3h-16v-15c0-4.4,3.6-8,8-8l0,0c4.4,0,8,3.6,8,8V39.3z"/>
		</g>
		<path class="blue"  d="M1199.9,34h-16V19c0-4.4,3.6-8,8-8l0,0c4.4,0,8,3.6,8,8V34z"/>
		<path class="blue" d="M1315.2,34h-16V19c0-4.4,3.6-8,8-8l0,0c4.4,0,8,3.6,8,8V34z"/>
	</symbol>
<symbol id="idea" viewbox="1432 6 243 164" class="blue">
	<g>
		<g>
			<path class="st1" d="M1544.1,133.7c3.6,3.6,2.1,11.1-3.4,16.6c-5.5,5.5-13,7.1-16.6,3.4C1534,143.8,1533.8,144,1544.1,133.7z"/>
			<path class="st1" d="M1558.3,94.6c-0.4,0.4-0.9,0.7-1.6,0.9l-15.6,3.5c-1.7,0.4-3.5-0.7-3.9-2.4c-0.4-1.7,0.7-3.5,2.4-3.9
				l15.6-3.5c1.7-0.4,3.5,0.7,3.9,2.4C1559.4,92.7,1559.1,93.9,1558.3,94.6z"/>
			<path class="st1" d="M1526.5,72.4c-1.1,1.1-2.8,1.3-4.1,0.4c-1.5-1-1.9-3-0.9-4.5l8.8-13.3c1-1.5,3-1.9,4.5-0.9
				c1.5,1,1.9,3,0.9,4.5l-8.8,13.3C1526.8,72.1,1526.7,72.2,1526.5,72.4z"/>
			<path class="st1" d="M1495.6,63.9c-0.4,0.4-1,0.7-1.6,0.9c-1.7,0.4-3.5-0.8-3.8-2.5l-3.2-15.6c-0.4-1.7,0.8-3.5,2.5-3.8
				c1.7-0.4,3.5,0.8,3.8,2.5l3.2,15.6C1496.7,62.1,1496.3,63.2,1495.6,63.9z"/>
			<path class="st1" d="M1468.3,77.9c-1.3,1.3-3.3,1.3-4.5,0l-11.4-11.2c-1.3-1.2-1.3-3.3,0-4.6c1.2-1.3,3.3-1.3,4.6,0l11.4,11.2
				C1469.5,74.6,1469.6,76.6,1468.3,77.9C1468.3,77.9,1468.3,77.9,1468.3,77.9z"/>
			<path class="st1" d="M1483.8,169c-1.3,1.3-3.7,1.4-5.3-0.7c-0.3-0.5-0.4-1.1-0.3-1.6l3.9-16.9c0.1-0.6,0.5-1.1,1-1.3
				c3.1-1.6,5.7,0.9,5.1,3.5l-3.5,15.6C1484.5,168,1484.2,168.6,1483.8,169z"/>
			<path class="st1" d="M1461.6,137.2c-0.2,0.2-0.3,0.3-0.5,0.4l-13.3,8.8c-1.5,1-3.5,0.6-4.5-0.9c-1-1.5-0.6-3.5,0.9-4.5l13.3-8.8
				c1.5-1,3.5-0.6,4.5,0.9C1462.8,134.4,1462.6,136.1,1461.6,137.2z"/>
			<path class="st1" d="M1453.1,106.2c-0.7,0.7-1.8,1.1-2.9,0.9l-15.6-3.2c-1.7-0.4-2.9-2.1-2.5-3.8c0.4-1.7,2.1-2.9,3.8-2.5
				l15.6,3.2c1.7,0.4,2.9,2.1,2.5,3.8C1453.8,105.2,1453.5,105.8,1453.1,106.2z"/>
			<path class="grey" d="M1472.3,82.5c-14.3,14.3-14.3,37.5,0,51.8c5,5,11.2,8.4,18,9.9c5.9,1.3,12,1.1,17.8-0.5l8.6,8.6
				c3.4,3.4,9,3.4,12.4,0l13.6-13.6c3.4-3.4,3.4-9,0-12.4l-9-9c3.1-12.5-0.5-25.6-9.6-34.7C1509.8,68.3,1486.6,68.3,1472.3,82.5z
				 M1526.2,117.2c-0.4,1.3-0.1,2.7,0.9,3.6l2.1,2.1l-15.8,15.8l-1.7-1.7c-1-1-2.4-1.3-3.8-0.9c-10.6,3.7-22.6,1-30.5-7
				c-11.5-11.5-11.5-30.1,0-41.5c11.5-11.5,30.1-11.5,41.5,0C1526.7,95.4,1529.5,106.8,1526.2,117.2z"/>
			<g>
				<g>
					<g>
						
							<ellipse transform="matrix(0.7071 -0.7071 0.7071 0.7071 362.817 1091.5277)" class="white" cx="1499" cy="107.8" rx="18.7" ry="18.7"/>
						
							<ellipse transform="matrix(0.7071 -0.7071 0.7071 0.7071 362.817 1091.5277)" class="grey" cx="1499" cy="107.8" rx="14.8" ry="14.8"/>
						
							<ellipse transform="matrix(0.7071 -0.7071 0.7071 0.7071 362.817 1091.5277)" class="white" cx="1499" cy="107.8" rx="10.4" ry="10.4"/>
						
							<ellipse transform="matrix(0.7071 -0.7071 0.7071 0.7071 362.817 1091.5277)" class="grey" cx="1499" cy="107.8" rx="6.5" ry="6.5"/>
					</g>
				</g>
			</g>
		</g>
		<g>
			<path class="st1" d="M1596.6,139c-1.9,5.6-10.3,7.8-18.8,4.9c-8.5-2.9-13.8-9.8-11.9-15.3C1581,133.8,1580.8,133.7,1596.6,139z"
				/>
			<path class="st1" d="M1644.1,133.9c-0.6-0.2-1.2-0.6-1.7-1.2l-11.5-14.2c-1.3-1.6-1-3.9,0.5-5.2c1.6-1.3,3.9-1,5.2,0.5l11.5,14.2
				c1.3,1.6,1,3.9-0.5,5.2C1646.6,134.1,1645.3,134.3,1644.1,133.9z"/>
			<path class="st1" d="M1650.9,89.8c-1.6-0.6-2.7-2.2-2.5-4c0.3-2,2.1-3.5,4.2-3.2l18.2,2.3c2,0.3,3.5,2.1,3.2,4.2
				c-0.3,2-2.1,3.5-4.2,3.2l-18.2-2.3C1651.4,90,1651.1,89.9,1650.9,89.8z"/>
			<path class="st1" d="M1643.9,53.6c-0.7-0.2-1.3-0.6-1.7-1.2c-1.3-1.6-1-4,0.7-5.2l14.5-11.2c1.6-1.3,4-1,5.2,0.7
				c1.3,1.6,1,4-0.7,5.2l-14.5,11.2C1646.4,53.8,1645.1,54,1643.9,53.6z"/>
			<path class="st1" d="M1615.7,32.6c-1.9-0.7-3-2.7-2.3-4.7l5.7-17.4c0.6-1.9,2.7-3,4.7-2.4c2,0.6,3,2.7,2.4,4.7l-5.7,17.4
				C1619.8,32.2,1617.7,33.3,1615.7,32.6C1615.7,32.6,1615.7,32.6,1615.7,32.6z"/>
			<path class="st1" d="M1529.7,94.8c-2-0.7-3.3-3-2-5.8c0.3-0.6,0.9-1,1.5-1.2l19.4-4.6c0.7-0.2,1.4,0,1.9,0.4c3.2,2.4,2,6.4-1,7
				l-17.8,4.2C1531,95.1,1530.3,95,1529.7,94.8z"/>
			<path class="st1" d="M1551.2,55.8c-0.2-0.1-0.5-0.2-0.7-0.3l-15.8-9.2c-1.8-1-2.4-3.3-1.3-5.1c1-1.8,3.3-2.4,5.1-1.3l15.8,9.2
				c1.8,1,2.4,3.3,1.3,5.1C1554.7,55.7,1552.8,56.3,1551.2,55.8z"/>
			<path class="st1" d="M1578.8,31.3c-1.1-0.4-2.1-1.3-2.4-2.6l-4.7-17.7c-0.5-2,0.7-4,2.6-4.5c2-0.5,4,0.7,4.5,2.6l4.7,17.7
				c0.5,2-0.7,4-2.6,4.5C1580.2,31.6,1579.4,31.6,1578.8,31.3z"/>
			<path class="grey" d="M1612.9,39.1c-21.9-7.5-45.9,4.3-53.3,26.3c-2.6,7.6-3,15.8-1,23.6c1.7,6.7,4.9,12.9,9.5,18l-4.5,13.2
				c-1.8,5.3,1,11,6.3,12.8l20.9,7.1c5.3,1.8,11-1,12.8-6.3l4.7-13.8c14.4-3.1,26.1-13.5,30.9-27.6
				C1646.7,70.5,1634.9,46.6,1612.9,39.1z M1604.5,112.2c-1.5,0.2-2.8,1.3-3.3,2.8l-1.1,3.2l-24.3-8.3l0.9-2.7
				c0.5-1.5,0.1-3.2-1-4.3c-9.2-9-12.5-22.8-8.3-34.9c6-17.6,25.2-27.1,42.8-21.1c17.6,6,27.1,25.2,21.1,42.8
				C1627.3,101.7,1617,110.3,1604.5,112.2z"/>
			<g>
				<g>
					<g>
						
							<ellipse transform="matrix(0.322 -0.9467 0.9467 0.322 1009.8876 1569.0682)" class="white" cx="1600.4" cy="79.4" rx="21.5" ry="21.5"/>
						
							<ellipse transform="matrix(0.322 -0.9467 0.9467 0.322 1009.8876 1569.0681)" class="grey" cx="1600.4" cy="79.4" rx="16.9" ry="16.9"/>
						
							<ellipse transform="matrix(0.322 -0.9467 0.9467 0.322 1009.8876 1569.0681)" class="white" cx="1600.4" cy="79.4" rx="12" ry="12"/>
						
							<ellipse transform="matrix(0.322 -0.9467 0.9467 0.322 1009.8876 1569.0681)" class="grey" cx="1600.4" cy="79.4" rx="7.5" ry="7.5"/>
					</g>
				</g>
			</g>
		</g>
	</g>
</symbol>
<symbol id="no-time" viewbox="118 184 201 132" class="blue">
	<g>
		<g>
			<path class="grey" d="M178.9,184c-33.5,0-60.7,27.2-60.7,60.7c0,33.5,27.2,60.7,60.7,60.7s60.7-27.2,60.7-60.7
				C239.6,211.2,212.4,184,178.9,184z M183.5,296V292c0-2.5-2-4.6-4.6-4.6s-4.6,2-4.6,4.6v4.1c-24.8-2.2-44.6-22.1-46.8-46.9h3.9
				c2.5,0,4.6-2,4.6-4.6c0-2.5-2-4.6-4.6-4.6h-3.9c2.3-24.7,22-44.4,46.7-46.6v3.8c0,2.5,2,4.6,4.6,4.6s4.6-2,4.6-4.6v-3.8
				c24.7,2.2,44.5,21.9,46.7,46.6h-3.9c-2.5,0-4.6,2-4.6,4.6c0,2.5,2,4.6,4.6,4.6h3.9C228.1,274,208.3,293.8,183.5,296z"/>
			<path d="M206.2,215.1L179,243.6c-0.1,0-0.1,0-0.2,0c-0.3,0-0.7,0-1,0.1l-22.7-17.2c-1.5-1.1-3.7-0.8-4.8,0.7
				c-1.1,1.5-0.8,3.7,0.7,4.8l22.7,17.2c0.2,2.6,2.4,4.7,5.1,4.7c2.8,0,5.2-2.3,5.2-5.2c0-0.1,0-0.3,0-0.4l27.1-28.4
				c1.3-1.4,1.3-3.5-0.1-4.9C209.7,213.7,207.5,213.8,206.2,215.1z"/>
		</g>
		<g>
			<path stroke="white" stroke-width="3px" stroke-linejoin="round" d="M222.7,224.5c-4.9-0.4-9.2,4.8-7.9,9.5c0.6,2.6,2.9,4.1,4.6,6c-3.3-0.2-7.2-0.1-9.1,3.2
				c-3.6,4.1-0.9,10.9,4.3,12c-3.1,0.5-6.8,0.1-9.1,2.6c-3.4,3.3-2.7,10.1,1.8,12.1c2.2,1.3,4.8,0.9,7.2,0.9
				c-1.9,1.2-4.4,2.2-5.2,4.6c-1.4,3.2-0.6,7.6,2.5,9.5c2.1,1.6,4.9,1.6,7.4,1.6c9,0,18.1-0.1,27.1,0c0,7.6-0.4,15.2,0.1,22.7
				c0.4,5.8,8.5,8.6,12.5,4.5c3.8-3.1,2.4-8.3,2.8-12.5c0.6-12.5,5.3-26.4,16.9-32.7c12.2-6.9,26.7-4.6,40.1-4.8
				c-0.3-14.5-4.7-28-12-39.4c0.1,0.1,0.1,0.2,0.2,0.3C279,224.5,250.9,224.5,222.7,224.5z"/>
		</g>
	</g>
</symbol>
<symbol id="no-quality" viewbox="355 178 196 143" class="blue">
	<g>
		<g>
			<g>
				<polygon class="blue" points="398.9,321.4 385,302.1 361.9,307.7 381.5,255 418.4,268.7 				"/>
				<polygon class="blue" points="451.2,309.4 428.4,302.8 413.7,321.4 396.5,267.9 434,255.8 				"/>
			</g>
			<g>
				<path class="grey" d="M355,228.8c0-5.4,3.6-10.2,5.2-15.1c1.6-5.1,1.6-11.1,4.7-15.3c3.1-4.3,8.8-6.1,13.1-9.2
					c4.2-3.1,7.7-8,12.8-9.6c4.9-1.6,10.6,0.3,16,0.3c5.4,0,11.1-1.9,16-0.3c5.1,1.6,8.5,6.6,12.8,9.6c4.3,3.1,10,4.9,13.1,9.2
					c3.1,4.2,3,10.2,4.7,15.3c1.6,4.9,5.2,9.7,5.2,15.1s-3.6,10.2-5.2,15.1c-1.6,5.1-1.6,11.1-4.7,15.3c-3.1,4.3-8.8,6.1-13.1,9.2
					c-4.2,3.1-7.7,8-12.8,9.6c-4.9,1.6-10.6-0.3-16-0.3c-5.4,0-11.1,1.9-16,0.3c-5.1-1.6-8.5-6.6-12.8-9.6c-4.3-3.1-10-4.9-13.1-9.2
					c-3.1-4.2-3-10.2-4.7-15.3C358.6,239,355,234.2,355,228.8z"/>
				<circle class="white" cx="406.7" cy="228.8" r="43.7"/>
				<circle class="grey" cx="406.7" cy="228.8" r="33.4"/>
			</g>
		</g>
		<g>
			<path stroke="white" stroke-width="3px" stroke-linejoin="round" d="M454.6,221c-4.9-0.4-9.2,4.8-7.9,9.5c0.6,2.6,2.9,4.1,4.6,6c-3.3-0.2-7.2-0.1-9.1,3.2
				c-3.6,4.1-0.9,10.9,4.3,12c-3.1,0.5-6.8,0.1-9.1,2.6c-3.4,3.3-2.7,10.1,1.8,12.1c2.2,1.3,4.8,0.9,7.2,0.9
				c-1.9,1.2-4.4,2.2-5.2,4.6c-1.4,3.2-0.6,7.6,2.5,9.5c2.1,1.6,4.9,1.6,7.4,1.6c9,0,18.1-0.1,27.1,0c0,7.6-0.4,15.2,0.1,22.7
				c0.4,5.8,8.5,8.6,12.5,4.5c3.8-3.1,2.4-8.3,2.8-12.5c0.6-12.5,5.3-26.4,16.9-32.7c12.2-6.9,26.7-4.6,40.1-4.8
				c-0.3-14.5-4.7-28-12-39.4c0.1,0.1,0.1,0.2,0.2,0.3C510.9,221,482.7,221,454.6,221z"/>
		</g>
	</g>
</symbol>
<symbol id="no-skill" viewbox="611 192 212 120" class="blue">
	<g>
		<path  d="M694.2,273.5l-4.6-1.2c0.1-1.2,0.2-2.4,0.2-3.5c0-1.3-0.1-2.7-0.2-3.9l4.6-1.3c1.5-0.4,2.4-2,1.9-3.4
			l-1.5-5.6c-0.4-1.5-2-2.4-3.4-1.9l-4.6,1.3c-1-2.3-2.3-4.5-3.8-6.5l3.4-3.4c1.1-1.1,1.1-2.9,0-3.9l-4.1-4c-1.1-1.1-2.9-1.1-3.9,0
			l-3.3,3.4c-2-1.5-4.2-2.7-6.5-3.7l1.2-4.7c0.4-1.5-0.5-3-2-3.4l-5.6-1.4c-1.5-0.4-3,0.5-3.4,2l-1.2,4.6c-1.2-0.1-2.4-0.2-3.5-0.2
			c-1.3,0-2.7,0.1-3.9,0.2l-1.3-4.6c-0.4-1.5-2-2.4-3.4-1.9l-5.6,1.5c-1.5,0.4-2.4,2-1.9,3.4l1.3,4.6c-2.3,1-4.5,2.3-6.5,3.8
			l-3.4-3.4c-1.1-1.1-2.9-1.1-3.9,0l-4,4.1c-1.1,1.1-1.1,2.9,0,3.9l3.4,3.3c-1.5,2-2.7,4.2-3.7,6.5l-4.7-1.2c-1.5-0.4-3,0.5-3.4,2
			l-1.4,5.6c-0.4,1.5,0.5,3,2,3.4l4.6,1.2c-0.1,1.2-0.2,2.4-0.2,3.5c0,1.3,0.1,2.7,0.2,3.9l-4.6,1.3c-1.5,0.4-2.4,2-1.9,3.4l1.5,5.6
			c0.4,1.5,2,2.4,3.4,1.9l4.6-1.3c1,2.3,2.3,4.5,3.8,6.5l-3.4,3.4c-1.1,1.1-1.1,2.9,0,3.9l4.1,4c1.1,1.1,2.9,1.1,3.9,0l3.3-3.4
			c2,1.5,4.2,2.7,6.5,3.7l-1.2,4.7c-0.4,1.5,0.5,3,2,3.4l5.6,1.4c1.5,0.4,3-0.5,3.4-2l1.2-4.6c1.2,0.1,2.4,0.2,3.5,0.2
			c1.3,0,2.7-0.1,3.9-0.2l1.3,4.6c0.4,1.5,2,2.4,3.4,1.9l5.6-1.5c1.5-0.4,2.4-2,1.9-3.4l-1.3-4.6c2.3-1,4.5-2.3,6.5-3.8l3.4,3.4
			c1.1,1.1,2.9,1.1,3.9,0l4-4.1c1.1-1.1,1.1-2.9,0-3.9l-3.4-3.3c1.5-2,2.7-4.2,3.7-6.5l4.7,1.2c1.5,0.4,3-0.5,3.4-2l1.4-5.6
			C696.5,275.4,695.6,273.8,694.2,273.5z"/>
		<path class="grey" d="M729.7,223.8l-3.5-1.5c0.1-0.9,0.2-1.7,0.2-2.6c0-1.2-0.1-2.4-0.3-3.6l3.2-1.3c1.4-0.6,2.1-2.2,1.5-3.6
			l-2.2-5.3c-0.6-1.4-2.2-2.1-3.6-1.5l-3.5,1.4c-1.3-1.6-2.8-3.1-4.5-4.3l1.4-3.2c0.6-1.4-0.1-3.1-1.5-3.7l-5.3-2.2
			c-1.4-0.6-3.1,0.1-3.7,1.5l-1.5,3.5c-0.9-0.1-1.7-0.2-2.6-0.2c-1.2,0-2.4,0.1-3.6,0.3l-1.3-3.2c-0.6-1.4-2.2-2.1-3.6-1.5l-5.3,2.2
			c-1.4,0.6-2.1,2.2-1.5,3.6l1.4,3.5c-1.6,1.3-3.1,2.8-4.3,4.5l-3.2-1.4c-1.4-0.6-3.1,0.1-3.7,1.5l-2.2,5.3
			c-0.6,1.4,0.1,3.1,1.5,3.7l3.5,1.5c-0.1,0.9-0.2,1.7-0.2,2.6c0,1.2,0.1,2.4,0.3,3.6l-3.2,1.3c-1.4,0.6-2.1,2.2-1.5,3.6l2.2,5.3
			c0.6,1.4,2.2,2.1,3.6,1.5l3.5-1.4c1.3,1.6,2.8,3.1,4.5,4.3l-1.4,3.2c-0.6,1.4,0.1,3.1,1.5,3.7l5.3,2.2c1.4,0.6,3.1-0.1,3.7-1.5
			l1.5-3.5c0.9,0.1,1.7,0.2,2.6,0.2c1.2,0,2.4-0.1,3.6-0.3l1.3,3.2c0.6,1.4,2.2,2.1,3.6,1.5l5.3-2.2c1.4-0.6,2.1-2.2,1.5-3.6
			l-1.4-3.5c1.6-1.3,3.1-2.8,4.3-4.5l3.2,1.4c1.4,0.6,3.1-0.1,3.7-1.5l2.2-5.3C731.8,226,731.1,224.3,729.7,223.8z"/>
		<circle class="white" cx="703.9" cy="219.7" r="10.6"/>
		<circle class="white" cx="653.6" cy="268.7" r="22.7"/>
	</g>
	<g>
		<path stroke="white" stroke-width="3px" stroke-linejoin="round" d="M726.5,221c-4.9-0.4-9.2,4.8-7.9,9.5c0.6,2.6,2.9,4.1,4.6,6c-3.3-0.2-7.2-0.1-9.1,3.2
			c-3.6,4.1-0.9,10.9,4.3,12c-3.1,0.5-6.8,0.1-9.1,2.6c-3.4,3.3-2.7,10.1,1.8,12.1c2.2,1.3,4.8,0.9,7.2,0.9
			c-1.9,1.2-4.4,2.2-5.2,4.6c-1.4,3.2-0.6,7.6,2.5,9.5c2.1,1.6,4.9,1.6,7.4,1.6c9,0,18.1-0.1,27.1,0c0,7.6-0.4,15.2,0.1,22.7
			c0.4,5.8,8.5,8.6,12.5,4.5c3.8-3.1,2.4-8.3,2.8-12.5c0.6-12.5,5.3-26.4,16.9-32.7c12.2-6.9,26.7-4.6,40.1-4.8
			c-0.3-14.5-4.7-28-12-39.4c0.1,0.1,0.1,0.2,0.2,0.3C782.8,221,754.7,221,726.5,221z"/>
	</g>
</symbol>
<symbol id="no-freelance" viewbox="852 209 225 104" class="blue">
	<g>
		<path class="white" d="M923.8,243.5v14.2h30.6v-14.2H923.8z M937.7,256.2h-12.1V245h12.1V256.2z M952.4,256.2h-12.1V245h12.1V256.2z
			"/>
		<polygon class="grey" points="939.6,217.9 982.6,248.8 988.1,243.9 939.6,209.1 891.2,243.9 896.7,248.8 		"/>
		<rect x="940.4" y="245"  width="12.1" height="11.2" class="blue"/>
		<polyline points="937.7,245 925.6,245 925.6,256.2 937.7,256.2 		" class="blue"/>
		<path class="grey" d="M976.7,267.3v-20.2l-37.1-26.7l-37.1,26.7v18.7l-21.7-15.6l-9,6.4v-5.5h-6.2v10l-13.3,9.6l3.2,2.9l25.3-18.2
			l21.7,15.6v2.1l-21.7-15.6L859,273.3v32.6c4.7-0.5,9.6-1,14.5-1.4V285h14v18.5c4.9-0.3,9.9-0.5,15.1-0.7c0.1,0,0.1,0,0.2,0
			c7.4-0.3,14.9-0.4,22.6-0.4h0.3c1.1,0,2.1,0,3.2,0h0.5v-30.9l25.2-12.2l20.3,11.1l7.5,5V305c1.4,0.1,2.8,0.3,4.2,0.4v-27.3
			l9.1,6.1l2.7-2.6L976.7,267.3z M923.8,257.7v-14.2h30.6v14.2"/>
		<path class="grey" d="M957.1,281.8v21.3c4.2,0.2,8.4,0.5,12.5,0.8v-22.1H957.1z"/>
		<path class="grey" d="M942.1,281.8v20.8c4.2,0.1,8.4,0.3,12.5,0.5v-21.2H942.1z"/>
		<g>
			<path stroke="white" stroke-width="3px" stroke-linejoin="round" d="M980.8,221.1c-4.9-0.4-9.2,4.8-7.9,9.5c0.6,2.6,2.9,4.1,4.6,6c-3.3-0.2-7.2-0.1-9.1,3.2
				c-3.6,4.1-0.9,10.9,4.3,12c-3.1,0.5-6.8,0.1-9.1,2.6c-3.4,3.3-2.7,10.1,1.8,12.1c2.2,1.3,4.8,0.9,7.2,0.9
				c-1.9,1.2-4.4,2.2-5.2,4.6c-1.4,3.2-0.6,7.6,2.5,9.5c2.1,1.6,4.9,1.6,7.4,1.6c9,0,18.1-0.1,27.1,0c0,7.6-0.4,15.2,0.1,22.7
				c0.4,5.8,8.5,8.6,12.5,4.5c3.8-3.1,2.4-8.3,2.8-12.5c0.6-12.5,5.3-26.4,16.9-32.7c12.2-6.9,26.7-4.6,40.1-4.8
				c-0.3-14.5-4.7-28-12-39.4c0.1,0.1,0.1,0.2,0.2,0.3C1037.1,221.1,1009,221,980.8,221.1z"/>
		</g>
	</g>
</symbol>
<symbol id="no-money" viewbox="1127 204 215 124" class="grey">
	<g>
		<g>
			<g>
				<path class="white" d="M1176.8,219.3c23.6-6.6,50.4,7.6,58.1,30.8c8.9,23.3-3.6,51.6-26.6,61c-21.6,9.9-49.3,0.7-61.1-19.9
					c-11.8-18.9-7.8-45.5,8.7-60.4C1161.8,225.4,1169,221.3,1176.8,219.3z M1186.2,224.8c0,1.7-0.1,3.4-0.1,5.1
					c-4.9,1.1-10.4,2.3-13.7,6.5c-4.3,5.7-4.1,13.9-1.2,20.2c2.6,6,8.7,9.1,13.9,12.5c3.2,2.1,7.2,4.3,7.2,8.7
					c0.2,3.5,1.6,10.1-3.8,10.2c-4.1-3.4-1.5-9.8-2.3-14.3c-5.6,0-11.2,0-16.8,0c0.1,6.4-0.1,13.8,4.8,18.7c3.1,3.5,8,4.2,11.9,6.2
					c0.1,1.9,0.2,3.8,0.2,5.7c2.5,0,5,0,7.6,0c0-2,0-4-0.1-6c5.2-1.3,11-3,14-7.9c4.1-6.6,4.2-15.2,1.6-22.4
					c-4.1-9.3-15.4-11.3-22-18.2c-1.4-2.9-2.2-8.3,1.5-9.7c5,0.2,2.8,6.8,3.6,10.1c5.6,0,11.2,0,16.8,0c-0.1-5,0-10.5-3.5-14.4
					c-2.9-3.7-7.6-4.8-11.9-5.7c-0.1-1.7-0.2-3.5-0.2-5.2C1191.2,224.8,1188.7,224.8,1186.2,224.8z"/>
			</g>
			<g>
				<g>
					<path d="M1163.2,210.2c16.9-7.9,37.5-7.6,54.1,1.2c11.4,5.8,20.8,15.2,26.7,26.6c9.9,18.7,9.1,42.4-1.9,60.4
						c-10.6,17.9-30.8,29.7-51.7,29.9c-11.8,0.4-23.5-3.1-33.7-8.9c-15.3-9.7-26.2-25.8-28.9-43.7c-0.2-2.8-0.4-5.6-0.5-8.5
						c0-6.5,0.9-13.1,2.8-19.4C1135.3,231.4,1147.5,217.4,1163.2,210.2z M1176.8,219.3c-7.8,2-15,6.1-21,11.5
						c-16.4,14.9-20.5,41.5-8.7,60.4c11.7,20.6,39.4,29.8,61.1,19.9c23-9.4,35.5-37.7,26.6-61
						C1227.3,226.9,1200.4,212.7,1176.8,219.3z"/>
				</g>
			</g>
			<path class="st2" d="M1186.2,224.8c2.5,0,5,0,7.6,0c0.1,1.7,0.1,3.5,0.2,5.2c4.3,1,9,2.1,11.9,5.7c3.5,3.9,3.4,9.4,3.5,14.4
				c-5.6,0-11.2,0-16.8,0c-0.8-3.3,1.4-9.9-3.6-10.1c-3.7,1.4-3,6.8-1.5,9.7c6.6,6.9,18,8.9,22,18.2c2.6,7.1,2.5,15.8-1.6,22.4
				c-3,4.9-8.8,6.6-14,7.9c0,2,0,4,0.1,6c-2.5,0-5.1,0-7.6,0c0-1.9-0.1-3.8-0.2-5.7c-4-2-8.8-2.7-11.9-6.2
				c-4.9-4.9-4.6-12.3-4.8-18.7c5.6,0,11.2,0,16.8,0c0.8,4.6-1.8,11,2.3,14.3c5.4-0.1,4-6.6,3.8-10.2c0-4.3-4-6.6-7.2-8.7
				c-5.2-3.4-11.2-6.5-13.9-12.5c-2.9-6.3-3.1-14.5,1.2-20.2c3.3-4.3,8.7-5.4,13.7-6.5C1186.1,228.2,1186.1,226.5,1186.2,224.8z"/>
		</g>
		<g>
			<path stroke="white" stroke-width="3px" stroke-linejoin="round" class="blue" d="M1245.6,224.3c-4.9-0.4-9.2,4.8-7.9,9.5c0.6,2.6,2.9,4.1,4.6,6c-3.3-0.2-7.2-0.1-9.1,3.2
				c-3.6,4.1-0.9,10.9,4.3,12c-3.1,0.5-6.8,0.1-9.1,2.6c-3.4,3.3-2.7,10.1,1.8,12.1c2.2,1.3,4.8,0.9,7.2,0.9
				c-1.9,1.2-4.4,2.2-5.2,4.6c-1.4,3.2-0.6,7.6,2.5,9.5c2.1,1.6,4.9,1.6,7.4,1.6c9,0,18.1-0.1,27.1,0c0,7.6-0.4,15.2,0.1,22.7
				c0.4,5.8,8.5,8.6,12.5,4.5c3.8-3.1,2.4-8.3,2.8-12.5c0.6-12.5,5.3-26.4,16.9-32.7c12.2-6.9,26.7-4.6,40.1-4.8
				c-0.3-14.5-4.7-28-12-39.4c0.1,0.1,0.1,0.2,0.2,0.3C1302,224.3,1273.8,224.3,1245.6,224.3z"/>
		</g>
	</g>
</symbol>
<symbol id="no-network" viewbox="1396 208 211 122" class="grey">
	<g>
		<g>
			<g>
				<path class="st2" d="M1440.2,213.8c0.3,0,0.6-0.1,0.9-0.1c0,0.2,0,0.3,0.1,0.5c-0.2,0-0.5,0-0.7,0c0,0.2,0,0.5,0,0.7
					c-0.2,0-0.3,0-0.5,0c0-0.2,0.1-0.4,0.1-0.6C1440.1,214.1,1440.2,213.9,1440.2,213.8z"/>
				<path class="st2" d="M1441.5,214.8c0.2,0,0.3,0,0.5,0c0,0.2,0,0.4,0,0.6l-0.2-0.1c0,0.1,0.1,0.3,0.1,0.4c-0.3,0.2-0.7,0.2-1,0.3
					c0-0.1,0-0.3,0-0.5c0.2,0,0.5,0.1,0.6,0.1C1441.5,215.3,1441.5,215.1,1441.5,214.8z"/>
				<path class="st2" d="M1471.2,241.5c0.3,0,0.6,0,0.9-0.1c0,0.2,0,0.3,0,0.5c-0.3,0-0.5,0-0.7,0c0,0.2,0,0.5,0.1,0.6
					c-0.1,0-0.3,0-0.4,0c0-0.3,0-0.5,0.1-0.8l0.2,0L1471.2,241.5z"/>
				<path class="st2" d="M1472.5,242.6c0.1,0,0.3,0,0.4,0c0,0.3,0,0.5,0,0.8l-0.2-0.1l0.1,0.3c-0.4,0-0.8,0-1.2-0.1
					c0.3-0.1,0.6-0.1,1-0.1C1472.6,243.1,1472.5,242.8,1472.5,242.6z"/>
				<path class="st2" d="M1409.6,269.1c0.3,0,0.5,0,0.8-0.1c0,0.1,0,0.3,0,0.5c-0.2,0-0.5,0-0.6-0.1c0,0.3,0,0.5,0,0.8
					c-0.1,0-0.3,0-0.4,0.1c0-0.3,0-0.7,0-1l0.2,0.1L1409.6,269.1z"/>
				<path class="st2" d="M1503.3,269.1c0.3,0,0.5,0,0.8-0.1c0,0.1,0,0.3,0,0.5c-0.2,0-0.5,0-0.6-0.1c0,0.3,0,0.5,0,0.8
					c-0.1,0-0.3,0-0.4,0.1c0-0.3,0-0.7,0-1l0.2,0.1L1503.3,269.1z"/>
				<path class="st2" d="M1440.2,296.7c0.3,0,0.6-0.1,0.9-0.1c0,0.2,0,0.3,0.1,0.5c-0.2,0-0.5,0-0.7,0c0,0.2,0,0.5,0,0.7
					c-0.2,0-0.3,0-0.5,0c0.1-0.2,0.1-0.4,0.1-0.6C1440.1,297.1,1440.2,296.9,1440.2,296.7z"/>
				<path class="st2" d="M1441.5,297.8c0.2,0,0.3,0,0.5,0c0,0.2,0,0.4,0,0.6l-0.2,0c0,0.1,0.1,0.3,0.1,0.4c-0.3,0.1-0.7,0.2-1,0.3
					c0-0.1,0-0.3,0-0.5c0.2,0,0.5,0.1,0.6,0.1C1441.5,298.3,1441.5,298.1,1441.5,297.8z"/>
				<g>
					<path class="st2" d="M1467.8,208.9c-1.1,3.1-2,6.3-2.8,9.5c-0.1,0.5-0.4,1.1-0.4,1.6l-0.1-0.1c0,0.5-0.1,1.1-0.2,1.6l-0.2,0
						c0.1,0.9-0.3,1.8-0.4,2.8c-2.6,0-5.1,1.5-6.4,3.8c-15-2.6-30.5-2.1-45.4,0.6c6.1-6.9,13.8-12.5,22.4-16
						C1444.7,208.3,1456.5,207,1467.8,208.9z"/>
				</g>
				<path class="st2" d="M1471.2,209.6c1.5,0.3,2.9,0.7,4.3,1.2c0,0,0,0.1,0,0.1c0.3,0,0.5,0,0.8,0c5.6,1.8,10.9,4.4,15.7,7.8
					c-7.8,2-15.5,4.6-22.8,8.1c-0.6-0.7-1.4-1.3-2.2-1.8c0.3-1.5,0.7-3.1,1-4.6c0.1-0.4,0.3-0.8,0.5-1.2c0.1,0,0.3,0,0.3,0
					c-0.1,0-0.3-0.1-0.4-0.1c0.1-0.4,0.1-0.8,0.2-1.1l0.2,0.1c-0.1-0.7,0.2-1.4,0.4-2.1l0.2,0c-0.1-0.3-0.5-0.6,0-0.8
					C1470,213.3,1470.6,211.4,1471.2,209.6z"/>
				<path class="st2" d="M1493,222.1c0.9-0.2,1.7-0.5,2.6-0.6c9.5,7.6,16.6,18.2,20.1,29.8c-1.7-0.1-3.4,0.3-4.7,1.2
					c-11.8-9.7-25.5-17.1-40.2-21.4c0-0.4-0.1-0.7-0.1-1.1C1477.8,226.6,1485.3,224,1493,222.1z"/>
				<path class="st2" d="M1408.4,232.9c15.7-3.4,32.1-4.1,48-1.4c0,0.8,0.2,1.6,0.4,2.4c-10.7,6.9-20.3,15.6-28.2,25.6
					c-3.1,4-6,8.1-8.7,12.4c-1.2-0.4-2.5-0.4-3.7-0.2c-5.6-10.1-9.4-21.2-11.6-32.5c-0.1-0.3,0.1-0.5,0.2-0.7
					C1405.9,236.5,1407.1,234.7,1408.4,232.9z"/>
				<g>
					<path class="st2" d="M1509.6,263.3c-7.2,10.5-16.2,19.7-26.5,27.1c-0.2,0.2-0.4,0.2-0.7,0.2c-0.1,0.5-0.7,0.8-1.1,0.7
						c0.2,0.4-0.4,0.5-0.7,0.6c-0.1,0.1-0.2,0.3-0.3,0.4c-0.5-0.4-1.1-0.8-1.6-1.1l0-0.5l-0.2,0.5c-1.4-0.6-3-0.7-4.5-0.4
						c-3.1-7.3-5.4-15-7-22.8c-1.9-9.7-2.5-19.7-1.8-29.6c2.1-0.5,3.9-1.9,4.9-3.9c14.1,4.2,27.2,11.3,38.6,20.6
						C1507.3,257.7,1507.7,261.1,1509.6,263.3z"/>
				</g>
				<g>
					<path class="st2" d="M1470.5,292.8c-1.7,1.6-2.4,4.1-2,6.4c-0.3,0.1-0.5,0.2-0.8,0.3c-0.2,0.2-0.4,0.3-0.7,0.4
						c-4.5,2.2-9.2,4.2-13.9,5.8c-1-1.5-2.5-2.6-4.3-3.1c-2.1-0.6-4.5-0.1-6.2,1.3c-7.2-6.2-13.8-13.2-19.3-20.9
						c1.1-1.5,1.7-3.4,1.5-5.2c-0.2-1.6-0.9-3.1-2-4.3c9.1-14.7,21.2-27.6,35.8-36.9c0.9,0.8,1.9,1.3,3,1.7
						c-1.4,18.2,1.8,36.7,8.8,53.5C1470.6,292.2,1470.9,292.6,1470.5,292.8z"/>
				</g>
				<g>
					<path class="st2" d="M1411.2,269.7c0,0.1,0.1,0.1,0.1,0.2c0-0.1,0.1-0.2,0.1-0.3L1411.2,269.7z"/>
					<path class="st2" d="M1413.1,284.2c-2.7,5.6-5,11.3-7.1,17.1c-4.5-7.1-7.5-15.2-8.7-23.5c-1.1-7.9-0.8-15.9,1.2-23.6l0.2,0
						c-0.1-0.6,0.1-1.1,0.3-1.7c0.1,0,0.3-0.1,0.4-0.1l-0.4-0.1c0.8-2.9,1.8-5.7,3-8.4c0.3,1.4,0.7,2.8,1,4.2c0,0.3,0.1,0.5,0.1,0.8
						c0.1,0.2,0.1,0.4,0.2,0.6l0.2,0c0.1,0.4-0.1,0.6-0.4,0.7c0.6-0.2,0.6,0.4,0.8,0.8c1.9,6.4,4.3,12.6,7.3,18.6
						c0,0.1,0.1,0.1,0.1,0.2l0,0c0,0.1,0.1,0.1,0.1,0.2c0.1,0.2,0.1,0.3,0.2,0.5c0.2,0.1,0.2,0.3,0.3,0.4c0.4,0.8,0.8,1.6,1.3,2.4
						c-1.5,1.4-2.5,3.4-2.5,5.4C1410.5,280.8,1411.5,282.8,1413.1,284.2z"/>
				</g>
				<path class="st2" d="M1512.5,265.3c1.8,0.7,3.9,0.6,5.7-0.3c0.5,8.6-0.8,17.4-3.8,25.4c-4.5,12-13,22.5-23.8,29.4
					c-3.8-5.2-7.3-10.6-10.4-16.3c2.5-1.9,3.5-5.5,2.3-8.4C1494.1,287.2,1504.4,277,1512.5,265.3z"/>
				<path class="st2" d="M1416.3,285.7c1.4,0.3,3,0.1,4.3-0.4c5.7,8,12.5,15.2,20,21.5c-0.4,0.9-0.6,1.9-0.6,2.8
					c-7.9,1.9-15.9,3-24,3.6c-2.8-2.6-5.3-5.4-7.5-8.5C1410.7,298.3,1413.2,291.9,1416.3,285.7z"/>
				<path class="st2" d="M1465.5,304.7c1.5-0.8,3-1.4,4.5-2.2c1.6,1.9,4.2,2.9,6.7,2.5c3.2,5.8,6.8,11.4,10.7,16.7
					c-2.8,1.6-5.8,3-8.8,4.1c-0.2,0.1-0.4-0.1-0.7-0.1c-8.4-3.7-16.6-8.1-24.2-13.2c0.4-1,0.6-2.2,0.5-3.3c3.2-1.1,6.3-2.3,9.4-3.7
					c0.3-0.2,0.7-0.2,1-0.3l-0.1-0.2c0.2-0.1,0.5-0.2,0.6-0.2c0,0.1,0,0.3,0.1,0.4C1465.4,305.1,1465.5,304.8,1465.5,304.7z"/>
				<path class="st2" d="M1419.7,316.5c7.1-0.7,14.2-1.8,21.1-3.4c0.9,1.7,2.5,3,4.4,3.5c2.2,0.6,4.7,0.1,6.5-1.4
					c6.9,4.7,14.2,8.7,21.8,12.2c-14.4,4-30.3,2.4-43.6-4.4C1426.3,321.2,1422.9,319,1419.7,316.5z"/>
				<path class="st2" d="M1411.2,269.7L1411.2,269.7c0,0-0.1-0.1-0.1-0.2C1411.2,269.6,1411.2,269.7,1411.2,269.7z"/>
			</g>
		</g>
		<g>
			<path stroke="white" stroke-width="3px" stroke-linejoin="round" class="blue" d="M1510.9,229.1c-4.9-0.4-9.2,4.8-7.9,9.5c0.6,2.6,2.9,4.1,4.6,6c-3.3-0.2-7.2-0.1-9.1,3.2
				c-3.6,4.1-0.9,10.9,4.3,12c-3.1,0.5-6.8,0.1-9.1,2.6c-3.4,3.3-2.7,10.1,1.8,12.1c2.2,1.3,4.8,0.9,7.2,0.9
				c-1.9,1.2-4.4,2.2-5.2,4.6c-1.4,3.2-0.6,7.6,2.5,9.5c2.1,1.6,4.9,1.6,7.4,1.6c9,0,18.1-0.1,27.1,0c0,7.6-0.4,15.2,0.1,22.7
				c0.4,5.8,8.5,8.6,12.5,4.5c3.8-3.1,2.4-8.3,2.8-12.5c0.6-12.5,5.3-26.4,16.9-32.7c12.2-6.9,26.7-4.6,40.1-4.8
				c-0.3-14.5-4.7-28-12-39.4c0.1,0.1,0.1,0.2,0.2,0.3C1567.2,229.1,1539,229.1,1510.9,229.1z"/>
		</g>
	</g>
</symbol>
<symbol id="top-100" viewbox="116 356 203 70" class="white">
	<g>
		<path  d="M130.6,371.5h-0.2l-11.8,6.1l-2.4-11.8l16.3-8.3h11.9v67.1h-13.9V371.5z"/>
		<path  d="M210.3,390.8c0,20.7-7.7,35-23.4,35c-15.9,0-22.9-15.6-23-34.6c0-19.4,7.6-34.8,23.5-34.8
			C203.8,356.4,210.3,372.4,210.3,390.8z M178.3,391.2c-0.1,15.4,3.3,22.7,8.9,22.7c5.6,0,8.6-7.6,8.6-22.9
			c0-14.9-2.9-22.7-8.7-22.7C181.8,368.3,178.2,375.6,178.3,391.2z"/>
		<path  d="M262.9,390.8c0,20.7-7.7,35-23.4,35c-15.9,0-22.9-15.6-23-34.6c0-19.4,7.6-34.8,23.5-34.8
			C256.4,356.4,262.9,372.4,262.9,390.8z M230.9,391.2c-0.1,15.4,3.3,22.7,8.9,22.7c5.6,0,8.6-7.6,8.6-22.9
			c0-14.9-2.9-22.7-8.7-22.7C234.4,368.3,230.8,375.6,230.9,391.2z"/>
		<path  d="M298.9,369.7v22.5h19.8v9.7h-19.8v22.7h-9.3v-22.7h-19.8v-9.7h19.8v-22.5H298.9z"/>
	</g>
</symbol>
<symbol id="top-20" viewbox="345 358 216 69" class="white">
	<g>
		<path  d="M358.3,371.8h-12.7v-12.5h36.3v12.5H369v53.5h-10.7V371.8z"/>
		<path  d="M428.7,391.6c0,21.7-9.4,34.8-23.2,34.8c-14,0-22.2-14.8-22.2-33.6c0-19.8,9-34.6,23-34.6
			C420.8,358.2,428.7,373.4,428.7,391.6z M394.6,392.5c0,12.9,4.3,22.1,11.5,22.1c7.2,0,11.3-9.6,11.3-22.5
			c0-11.9-4.1-22.1-11.4-22.1C398.8,370.1,394.6,379.7,394.6,392.5z"/>
		<path  d="M435.7,360.2c3.3-0.8,7.9-1.4,14.4-1.4c6.6,0,11.3,1.8,14.4,5.3c3,3.3,5,8.8,5,15.3c0,6.5-1.5,12-4.3,15.7
			c-3.6,4.8-9,7-15.3,7c-1.4,0-2.7-0.1-3.6-0.3v23.6h-10.6V360.2z M446.3,390.2c0.9,0.3,2,0.4,3.6,0.4c5.7,0,9.2-4,9.2-10.8
			c0-6.1-3-9.7-8.3-9.7c-2.2,0-3.6,0.3-4.4,0.6V390.2z"/>
		<path  d="M488.8,425.4v-9l5.9-7.5c9.9-12.5,14.8-19.6,14.9-27.1c0-5.2-2.2-9.3-7.5-9.3c-3.9,0-7.3,2.7-9.7,5.3l-3-10.7
			c3.4-3.6,8.7-6.6,14.9-6.6c10.3,0,16,8.4,16,20c0,10.7-5.5,19.2-12.1,27.5l-4.2,4.9v0.2h17.1v12.3H488.8z"/>
		<path  d="M561.3,393.2c0,19.7-5.7,33.2-17.3,33.2c-11.8,0-16.9-14.8-17-32.8c0-18.4,5.6-33,17.4-33
			C556.5,360.5,561.3,375.7,561.3,393.2z M537.7,393.6c-0.1,14.6,2.4,21.6,6.6,21.6s6.4-7.3,6.4-21.8c0-14.1-2.2-21.6-6.4-21.6
			C540.3,371.8,537.6,378.8,537.7,393.6z"/>
	</g>
</symbol>
<symbol id="world" viewbox="641 325 126 126" class="light-grey">
	<g>
		<g>
			<path class="st2" d="M686,331.6c0.3,0,0.6-0.1,0.9-0.2c0,0.2,0,0.3,0.1,0.5c-0.2,0-0.5,0-0.7,0c0,0.3,0,0.5,0,0.8
				c-0.2,0-0.4,0-0.5,0c0-0.2,0.1-0.4,0.1-0.6C686,331.9,686,331.7,686,331.6z"/>
			<path class="st2" d="M687.4,332.6c0.2,0,0.3,0,0.5,0c0,0.2,0,0.4,0,0.6l-0.2-0.1c0,0.1,0.1,0.3,0.1,0.4c-0.3,0.2-0.7,0.2-1,0.3
				c0-0.1,0-0.4,0-0.5c0.2,0,0.5,0.1,0.7,0.1C687.4,333.2,687.4,332.9,687.4,332.6z"/>
			<path class="st2" d="M718.1,360.2c0.3,0,0.6,0,1-0.1c0,0.2,0,0.3,0,0.5c-0.3,0-0.5,0-0.8,0c0,0.2,0,0.5,0.1,0.6
				c-0.1,0-0.3,0-0.4,0c0-0.3,0-0.6,0.1-0.8l0.2,0L718.1,360.2z"/>
			<path class="st2" d="M719.4,361.3c0.1,0,0.3,0,0.5,0c0,0.3,0,0.5,0,0.8l-0.2-0.1l0.1,0.3c-0.4,0-0.8,0-1.2-0.1
				c0.3-0.1,0.6-0.2,1-0.1C719.5,361.9,719.4,361.6,719.4,361.3z"/>
			<path class="st2" d="M654.4,388.7c0.3,0,0.5,0,0.8-0.1c0,0.1,0,0.4,0,0.5c-0.2,0-0.5,0-0.6-0.1c0,0.3,0,0.5,0,0.8
				c-0.1,0-0.3,0-0.4,0.1c0-0.3,0-0.7,0-1l0.2,0.1L654.4,388.7z"/>
			<path class="st2" d="M751.2,388.7c0.3,0,0.5,0,0.8-0.1c0,0.1,0,0.4,0,0.5c-0.2,0-0.5,0-0.6-0.1c0,0.3,0,0.5,0,0.8
				c-0.1,0-0.3,0-0.4,0.1c0-0.3,0-0.7,0-1l0.2,0.1L751.2,388.7z"/>
			<path class="st2" d="M686,417.3c0.3,0,0.6-0.1,0.9-0.1c0,0.2,0,0.3,0.1,0.5c-0.2,0-0.5,0-0.7,0c0,0.3,0,0.5,0,0.8
				c-0.2,0-0.4,0-0.5,0c0.1-0.2,0.1-0.4,0.2-0.6C686,417.6,686,417.4,686,417.3z"/>
			<path class="st2" d="M687.4,418.4c0.2,0,0.3,0,0.5,0c0,0.2,0,0.4,0,0.6l-0.2,0c0,0.1,0.1,0.3,0.1,0.4c-0.3,0.1-0.7,0.2-1,0.3
				c0-0.1,0-0.4,0-0.5c0.2,0,0.5,0.1,0.7,0.1C687.4,418.9,687.4,418.6,687.4,418.4z"/>
			<g>
				<path class="st2" d="M714.5,326.5c-1.1,3.2-2.1,6.5-2.9,9.8c-0.1,0.6-0.4,1.1-0.4,1.7l-0.1-0.1c0,0.5-0.1,1.1-0.2,1.6l-0.2,0
					c0.1,1-0.3,1.9-0.4,2.9c-2.7,0-5.3,1.5-6.6,3.9c-15.5-2.7-31.5-2.2-46.9,0.7c6.3-7.2,14.3-12.9,23.1-16.5
					C690.7,325.9,702.9,324.6,714.5,326.5z"/>
			</g>
			<path class="white" d="M718.1,327.3c1.5,0.3,3,0.7,4.4,1.2c0,0,0,0.1,0,0.1c0.3,0,0.5,0,0.8,0c5.8,1.9,11.2,4.6,16.2,8
				c-8.1,2-16,4.8-23.5,8.4c-0.6-0.7-1.4-1.4-2.3-1.9c0.3-1.6,0.7-3.2,1.1-4.8c0.1-0.5,0.3-0.9,0.5-1.3c0.1,0,0.3,0,0.4,0
				c-0.1,0-0.3-0.1-0.4-0.1c0.1-0.4,0.2-0.8,0.2-1.2l0.2,0.1c-0.1-0.8,0.2-1.5,0.4-2.2l0.2,0c-0.1-0.3-0.5-0.7,0-0.8
				C716.8,331.1,717.4,329.2,718.1,327.3z"/>
			<path class="white" d="M740.6,340.2c0.9-0.2,1.8-0.5,2.7-0.6c9.8,7.8,17.1,18.8,20.7,30.8c-1.7-0.2-3.5,0.3-4.9,1.2
				c-12.2-10-26.4-17.6-41.5-22.1c0-0.4-0.1-0.8-0.1-1.1C724.9,344.8,732.7,342.1,740.6,340.2z"/>
			<path class="white" d="M652.9,351.3c16.2-3.5,33.1-4.2,49.6-1.5c0,0.8,0.2,1.6,0.4,2.4c-11.1,7.1-21,16.1-29.1,26.4
				c-3.2,4.1-6.2,8.4-9,12.8c-1.2-0.4-2.6-0.4-3.9-0.2c-5.7-10.5-9.7-21.8-12-33.6c-0.1-0.3,0.1-0.5,0.2-0.8
				C650.3,355.1,651.6,353.2,652.9,351.3z"/>
			<g>
				<path class="white" d="M757.4,382.7c-7.4,10.8-16.7,20.3-27.4,28c-0.2,0.2-0.5,0.2-0.7,0.3c-0.1,0.5-0.7,0.8-1.2,0.7
					c0.2,0.5-0.4,0.5-0.7,0.6c-0.1,0.1-0.2,0.3-0.3,0.4c-0.5-0.4-1.1-0.8-1.7-1.1l0-0.5l-0.2,0.5c-1.5-0.6-3.1-0.8-4.7-0.4
					c-3.2-7.6-5.6-15.5-7.2-23.5c-2-10.1-2.6-20.4-1.9-30.6c2.2-0.5,4.1-2,5.1-4c14.5,4.3,28.1,11.6,39.8,21.2
					C755,377,755.4,380.4,757.4,382.7z"/>
			</g>
			<g>
				<path class="st2" d="M717.4,413.2c-1.7,1.7-2.5,4.2-2,6.6c-0.3,0.1-0.5,0.2-0.8,0.3c-0.2,0.2-0.4,0.3-0.7,0.4
					c-4.7,2.3-9.5,4.3-14.4,6c-1-1.5-2.6-2.7-4.4-3.2c-2.2-0.6-4.6-0.1-6.4,1.3c-7.5-6.4-14.2-13.6-20-21.6c1.2-1.5,1.8-3.5,1.5-5.4
					c-0.2-1.7-0.9-3.2-2.1-4.4c9.4-15.2,21.9-28.5,37-38.1c0.9,0.8,1.9,1.4,3.1,1.7c-1.4,18.8,1.8,37.9,9.1,55.3
					C717.5,412.6,717.8,413,717.4,413.2z"/>
			</g>
			<g>
				<path class="st2" d="M656.1,389.4c0,0.1,0.1,0.1,0.1,0.2c0-0.1,0.1-0.2,0.1-0.3L656.1,389.4z"/>
				<path class="st2" d="M658.1,404.3c-2.8,5.7-5.2,11.6-7.3,17.7c-4.7-7.4-7.8-15.7-9-24.3c-1.2-8.1-0.8-16.5,1.2-24.4l0.2,0
					c-0.1-0.6,0.1-1.2,0.3-1.7c0.1,0,0.3-0.1,0.4-0.1l-0.4-0.1c0.8-3,1.9-5.8,3.1-8.6c0.3,1.5,0.8,2.9,1,4.4c0,0.3,0.1,0.5,0.2,0.8
					c0.1,0.2,0.1,0.4,0.2,0.6l0.2,0c0.1,0.4-0.1,0.6-0.4,0.7c0.6-0.2,0.7,0.4,0.8,0.8c1.9,6.6,4.5,13,7.5,19.2
					c0,0.1,0.1,0.1,0.1,0.2l0,0c0,0.1,0.1,0.1,0.1,0.2c0.1,0.2,0.1,0.3,0.2,0.5c0.2,0.1,0.2,0.3,0.3,0.4c0.4,0.9,0.8,1.7,1.3,2.5
					c-1.6,1.4-2.6,3.5-2.6,5.6C655.4,400.8,656.4,402.9,658.1,404.3z"/>
			</g>
			<path class="st2" d="M760.7,384.8c1.9,0.7,4,0.6,5.9-0.3c0.6,8.9-0.8,17.9-4,26.3c-4.7,12.4-13.5,23.2-24.6,30.4
				c-3.9-5.4-7.6-11-10.8-16.9c2.6-2,3.6-5.6,2.4-8.6C741.7,407.4,752.3,396.9,760.7,384.8z"/>
			<path class="white" d="M661,405.9c1.5,0.3,3.1,0.1,4.5-0.4c5.9,8.2,12.9,15.7,20.6,22.2c-0.4,0.9-0.6,1.9-0.6,2.9
				c-8.1,1.9-16.4,3.1-24.7,3.7c-2.8-2.7-5.5-5.6-7.8-8.7C655.3,418.9,657.9,412.3,661,405.9z"/>
			<path class="white" d="M711.9,425.5c1.5-0.8,3.1-1.5,4.7-2.3c1.7,2,4.4,3,6.9,2.6c3.3,6,7,11.8,11,17.3c-2.9,1.7-6,3.1-9.1,4.2
				c-0.2,0.1-0.5-0.1-0.7-0.1c-8.7-3.8-17.1-8.3-25-13.7c0.4-1.1,0.6-2.2,0.5-3.4c3.3-1.2,6.6-2.4,9.7-3.8c0.3-0.2,0.7-0.2,1.1-0.3
				l-0.1-0.2c0.2-0.1,0.5-0.2,0.6-0.2c0,0.1,0,0.3,0.1,0.4C711.8,425.9,711.9,425.6,711.9,425.5z"/>
			<path class="st2" d="M664.9,437.6c7.3-0.7,14.6-1.8,21.8-3.5c1,1.8,2.6,3.1,4.6,3.7c2.3,0.7,4.9,0.1,6.7-1.4
				c7.1,4.8,14.7,9,22.5,12.6c-14.9,4.1-31.3,2.5-45-4.6C671.7,442.5,668.1,440.3,664.9,437.6z"/>
			<path class="st2" d="M656.1,389.4L656.1,389.4c0,0-0.1-0.1-0.1-0.2C656.1,389.2,656.1,389.3,656.1,389.4z"/>
		</g>
	</g>
</symbol>
	<symbol id="e-commerse" viewbox="870 325 163 136" class="white">
		<g id="signes-head">
			<g>
				<g>
					<path class="blue" d="M875.4,364.6c5.4,22.9,10.7,45.7,16.1,68.6c0.7,3.4,4.6,5.2,7.8,4.4c38.5-9,77.1-18.1,115.6-27.1
					c1.6-0.4,3.4-0.7,4.7-1.8c1.8-1.4,2.9-3.8,2.3-6.1c-2.8-11.8-5.5-23.6-8.3-35.5l-8.1-34.1c-0.2-0.5-0.5-1-0.9-1.4
					c-1.1-1.3-2.8-2-4.5-2.1l-122.4,29.1C875.9,359.9,874.8,362.3,875.4,364.6z"/>
					<path class="blue" d="M962.2,431.7c-0.1-0.4-0.2-0.8-0.3-1.2c0.4-0.1,0.7-0.2,1.1-0.3c0-0.2-0.1-0.5-0.2-0.7
					c-0.4,0.1-0.7,0.2-1.1,0.2c0-0.2-0.1-0.5-0.2-0.7c0.3-0.1,0.8-0.2,1.1-0.3l-0.1-0.6c-0.6,0.1-1.2,0.3-1.7,0.4
					c0.3,1.2,0.6,2.5,0.9,3.7c0.6-0.1,1.1-0.3,1.7-0.4l-0.2-0.6C963,431.5,962.5,431.6,962.2,431.7z"/>
					<path class="blue" d="M960.4,429.3c-0.6-0.6-1.5-0.1-2.2,0c0.3,1.2,0.6,2.5,0.9,3.7l0.6-0.1c-0.1-0.4-0.2-0.9-0.3-1.3
					c0.8-0.1,1.2,0.4,1.3,1.1c1.1-0.2,0.2-1.1,0-1.7C960.8,430.4,960.9,429.7,960.4,429.3z"/>
					<path class="blue" d="M965.4,430.1c-0.6-0.7-1.1-1.3-1.7-2c-0.2,1.3-0.1,2.6-0.2,3.9c1.2,0,0.6-1.3,0.7-2c0.5,0.5,0.9,1,1.3,1.5
					c0.2-0.6,0.4-1.3,0.7-1.9c0.4,0.6,0.5,1.9,1.5,1.5c-0.6-1.2-1.1-2.3-1.8-3.5C965.8,428.4,965.6,429.3,965.4,430.1z"/>
					<path class="st7" d="M952.8,430.6c-0.2,0-0.5,0.1-0.6,0.2c0.3,1.2,0.6,2.5,0.9,3.7c0.6-0.2,1.6-0.1,1.8-0.9
					c-0.4,0-0.9,0.1-1.3,0.1C953.2,432.6,953,431.6,952.8,430.6z"/>
					<path class="blue" d="M955.1,430.3c-1.1,0.9-0.6,2.9,0.7,3.3c1.4,0.5,3-1,2.4-2.4C958,429.8,956.1,429.3,955.1,430.3z"/>
					<path class="blue" d="M997.9,329.6c-38.4,9-76.9,18-115.3,27c-1.3,0.3-2.6,0.5-3.8,1.1c-0.4,0.2-0.7,0.4-1.1,0.7l122.4-29.1
					C999.4,329.4,998.7,329.4,997.9,329.6z"/>
					<path class="blue" d="M1006.3,335.8c-0.2-0.9-0.4-2-0.8-2.9l8.1,34.1C1011.2,356.7,1008.8,346.3,1006.3,335.8z"/>
					<path class="st2" d="M1029.6,414.4c-6.5-27.8-13-55.6-19.5-83.3c-0.3-1.2-0.8-2.3-1.5-3.3c-1.8-2-4.7-3-7.3-2.3
					c-41.8,9.8-83.7,19.6-125.5,29.4c-3.8,0.8-6.3,4.9-5.3,8.6c6.5,27.7,13,55.4,19.5,83.1c0.1,0.6,0.3,1.2,0.5,1.7
					c0.1,0.3,0.3,0.6,0.4,0.9c0.3,0.5,0.7,1.1,1.2,1.5c1,1,2.2,1.6,3.6,2c1,0.2,2.1,0.2,3.2-0.1c16.2-3.8,32.5-7.6,48.7-11.4
					c0.2,0.9,0.4,1.8,0.6,2.6c0.7,3,1.4,5.9,2.1,8.9c-3.1,0.8-6.3,1.4-9.4,2.2c-1.2,0.4-1.5,2.2-0.5,3c0.7,0.7,1.8,0.4,2.6,0.2
					c15.1-3.6,30.1-7.1,45.2-10.6c0.7-0.1,1.2-0.6,1.6-1.2c0.3-1.2-0.8-2.6-2.1-2.3c-2.2,0.4-4.3,1-6.5,1.5
					c-0.9,0.2-1.8,0.4-2.8,0.6c-0.9-3.9-1.8-7.7-2.7-11.6c16.2-3.8,32.4-7.6,48.6-11.4C1028,422.5,1030.7,418.2,1029.6,414.4z
					 M878.8,357.8c1.2-0.6,2.5-0.8,3.8-1.1c38.4-9,76.9-18,115.3-27c0.7-0.2,1.5-0.2,2.2-0.2c1.7,0.1,3.4,0.8,4.5,2.1
					c0.4,0.4,0.7,0.9,0.9,1.4c0.4,0.9,0.5,1.9,0.8,2.9c2.4,10.4,4.9,20.8,7.3,31.3c2.8,11.8,5.5,23.6,8.3,35.5
					c0.6,2.3-0.5,4.7-2.3,6.1c-1.3,1.1-3.1,1.4-4.7,1.8c-38.5,9-77.1,18.1-115.6,27.1c-3.2,0.8-7.1-1-7.8-4.4
					c-5.4-22.9-10.7-45.7-16.1-68.6c-0.6-2.3,0.5-4.7,2.3-6.1C878.1,358.2,878.4,358,878.8,357.8z M953,434.4
					c-0.3-1.2-0.6-2.5-0.9-3.7c0.2,0,0.5-0.1,0.6-0.2c0.3,1,0.5,2.1,0.7,3.1c0.4,0,0.9-0.1,1.3-0.1
					C954.5,434.3,953.6,434.2,953,434.4z M955.9,433.5c-1.4-0.4-1.8-2.3-0.7-3.2c1-1,2.8-0.5,3.2,0.8
					C958.9,432.5,957.3,434.1,955.9,433.5z M960.8,432.7c-0.1-0.7-0.6-1.2-1.3-1.1c0.1,0.4,0.2,0.9,0.3,1.3l-0.6,0.1
					c-0.3-1.2-0.6-2.5-0.9-3.7c0.7-0.1,1.6-0.5,2.2,0c0.5,0.4,0.4,1.1,0.4,1.6C961,431.5,961.9,432.5,960.8,432.7z M961.7,432.4
					c-0.3-1.2-0.6-2.5-0.9-3.7c0.6-0.1,1.2-0.3,1.7-0.4l0.1,0.6c-0.3,0.1-0.8,0.2-1.1,0.3c0,0.2,0.1,0.5,0.2,0.7
					c0.4-0.1,0.7-0.2,1.1-0.2c0,0.2,0.1,0.5,0.2,0.7c-0.4,0.1-0.7,0.2-1.1,0.3c0.1,0.4,0.2,0.8,0.3,1.2c0.3-0.1,0.8-0.2,1-0.3
					l0.2,0.6C962.8,432.1,962.2,432.3,961.7,432.4z M966.3,429.5c-0.2,0.6-0.4,1.3-0.7,1.9c-0.4-0.5-0.9-1-1.3-1.5
					c-0.1,0.7,0.4,2-0.7,2c0-1.3,0-2.6,0.2-3.9c0.6,0.7,1.1,1.3,1.7,2c0.2-0.9,0.4-1.7,0.7-2.6c0.6,1.1,1.2,2.3,1.8,3.5
					C966.7,431.5,966.7,430.2,966.3,429.5z"/>
				</g>
				<g>
					<g>
						<path class="white" d="M967.3,344.6c0.3,7.1,0.3,14.1,0.5,21.2c-0.7,0-1.4,0-2.1,0C966.3,358.8,966.8,351.7,967.3,344.6z"/>
						<path class="white" d="M948.2,370.2c-1-6.1-1.9-12.3-3-18.4c1.9,5.9,3.3,12,5,18C949.6,369.9,948.9,370,948.2,370.2z"/>
						<path class="white" d="M922.8,361.4c-0.6-1.2-1.4-2.3-1.9-3.6c3.7,5.3,7.4,10.6,11.1,15.8c-0.6,0.4-1.2,0.7-1.8,1.1
						C927.8,370.3,925.3,365.8,922.8,361.4z"/>
						<path class="white" d="M976.6,365.5c3.6-5.5,7-11.1,10.7-16.5c-2.9,5.9-5.9,11.7-8.8,17.6C977.8,366.2,977.2,365.9,976.6,365.5z"
						/>
						<path class="white" d="M903.1,376.3c1,0.1,1.9,0.3,2.8,0.5c5.2,1.2,10.3,2.4,15.5,3.6c-0.2,0.7-0.4,1.3-0.6,2
						C914.9,380.4,909,378.3,903.1,376.3z"/>
						<path class="white" d="M926.9,380.3c1.2-0.7,2.5-0.8,3.8-1.2c13.1-3.1,26.3-6.2,39.4-9.2c1.5-0.3,3-0.8,4.5-0.5
						c2.4,0.5,4.3,2.4,4.8,4.8c0.8,3.4,1.6,6.8,2.4,10.2c0.6,3.1-1.6,6.4-4.7,7.1c-13.8,3.3-27.7,6.5-41.5,9.7
						c-1.4,0.3-2.9,0.8-4.3,0.5c-2.3-0.4-4.3-2.3-4.9-4.6c-0.8-3.4-1.6-6.8-2.4-10.1C923.4,384.4,924.7,381.6,926.9,380.3z"/>
						<path class="white" d="M941.9,382.9c0.6,0,1.4,0.1,1.6,0.8c0.3,0.8-0.5,1.2-1.1,1.4C942.2,384.4,942,383.6,941.9,382.9z"/>
						<path class="white" d="M942.8,386.9c0.9-0.1,1.8-0.6,2.7-0.2c1.2,0.5,1.6,2.2,0.8,3.2c-0.6,0.8-1.7,0.9-2.5,1.1
						C943.4,389.7,943.1,388.3,942.8,386.9z"/>
						<path class="white" d="M984.1,377.2c5-0.8,10-1.7,15.1-2.5c-4.8,1.7-9.7,3-14.6,4.5C984.4,378.5,984.3,377.8,984.1,377.2z"/>
						<path class="white" d="M899.9,398.6c5.6-1.7,11.2-3.4,16.8-5c0.2,0.7,0.3,1.4,0.5,2C911.5,396.6,905.7,397.6,899.9,398.6z"/>
						<path class="white" d="M985.3,390.4c0.2-0.7,0.5-1.3,0.8-1.9c4,2.3,8.1,4.5,12.1,6.9C993.9,393.8,989.5,392.1,985.3,390.4z"/>
						<path class="white" d="M963.2,397.2c0.7-0.2,1.3-0.5,2-0.7c1.4,4.9,2.6,9.9,4,14.8C967.1,406.7,965.2,401.9,963.2,397.2z"/>
						<path class="white" d="M944.7,401.3c0.7,0,1.4-0.1,2.1-0.1c-0.2,5.2-0.2,10.4-0.4,15.5C945.9,411.6,945.3,406.4,944.7,401.3z"/>
						<path class="white" d="M916,420c3.1-4.2,6.1-8.5,9.2-12.7c0.5,0.4,1.1,0.9,1.6,1.3C923.2,412.4,919.7,416.3,916,420z"/>
						<path class="white" d="M975.9,396.9c0.5-0.5,1-1,1.6-1.4c3.1,3.9,6.3,7.6,9.4,11.5C983.2,403.6,979.6,400.2,975.9,396.9z"/>
						<g class="blue">
							<path class="st3" d="M940,396.5l-3.5-14.9l4.5-1.1c1.6-0.4,2.8-0.3,3.8,0.2c1,0.5,1.6,1.4,1.9,2.8c0.2,0.7,0.2,1.4,0,2
							c-0.2,0.6-0.6,1.1-1.1,1.5c0.7,0,1.3,0.3,1.8,0.8c0.5,0.5,0.9,1.2,1.1,2c0.3,1.4,0.2,2.6-0.4,3.5c-0.6,0.9-1.7,1.6-3.1,1.9
							L940,396.5z M940.7,387.2l2-0.5c1.3-0.3,1.9-1.1,1.6-2.3c-0.2-0.7-0.4-1.1-0.9-1.3c-0.4-0.2-1-0.2-1.7-0.1l-1.9,0.4
							L940.7,387.2z M941.2,389.4l0.9,4l2.3-0.5c0.6-0.1,1.1-0.4,1.4-0.9c0.3-0.4,0.3-0.9,0.2-1.6c-0.3-1.4-1.1-1.9-2.3-1.6
							L941.2,389.4z"/>
							<path class="st3" d="M958,376.6l2.3,9.8c0.4,1.6,0.2,3-0.4,4.2c-0.7,1.2-1.8,1.9-3.3,2.3c-1.5,0.4-2.8,0.2-3.9-0.5
							c-1.1-0.7-1.9-1.9-2.3-3.5l-2.3-9.9l2.7-0.6l2.3,9.8c0.2,1,0.6,1.6,1.1,2c0.5,0.3,1.1,0.4,1.8,0.3c1.5-0.4,2.1-1.4,1.7-3.3
							l-2.3-9.9L958,376.6z"/>
							<path class="st3" d="M966.2,381.7l1.1-7.3l2.9-0.7l-2,10.5l1.3,5.4l-2.7,0.6l-1.3-5.4l-6.5-8.5l2.9-0.7L966.2,381.7z"/>
						</g>
					</g>
					<g>
						<path class="st2" d="M959,429.7c0.4,0,1.2,0,1.1,0.6c0.1,0.4-0.5,0.5-0.8,0.7C959.2,430.6,959.1,430.2,959,429.7z"/>
						<path class="st2" d="M955.6,430.8c0.6-0.6,1.8-0.4,2.1,0.4c0.4,0.9-0.6,2.1-1.6,1.7C955.2,432.7,954.9,431.4,955.6,430.8z"/>
						<path class="blue" d="M1008.5,327.8c2.4,0.4,4.1,2.6,4.8,4.8c6.6,28.1,13.2,56.1,19.7,84.2c0.9,3.6-1.6,7.6-5.2,8.4
						c-16.3,3.8-32.6,7.6-48.9,11.5c0.6,3,1.4,5.9,2,8.9c-0.9,0.2-1.8,0.4-2.8,0.6c-0.9-3.9-1.8-7.7-2.7-11.6
						c16.2-3.8,32.4-7.6,48.6-11.4c3.9-0.7,6.6-5,5.4-8.9c-6.5-27.8-13-55.6-19.5-83.3C1009.7,329.9,1009.2,328.8,1008.5,327.8z"/>
						<path class="blue" d="M895.5,452.8c1,0.2,2.1,0.2,3.2-0.1c16.2-3.8,32.5-7.6,48.7-11.4c0.2,0.9,0.4,1.8,0.6,2.6
						c-15.2,3.6-30.4,7.2-45.6,10.7C900,455.3,897,454.8,895.5,452.8z"/>
						<path class="blue" d="M988,447.6c0.7-0.1,1.2-0.6,1.5-1.2c0.6-0.1,1.3-0.3,1.9-0.3c1.2,0.1,1.9,1.7,1.2,2.7
						c-0.3,0.6-1,0.7-1.6,0.9c-15.1,3.5-30.1,7-45.2,10.6c-0.7,0.1-1.5,0.4-2.1-0.1c-0.7-0.4-0.8-1.3-1-2
						C957.9,454.7,973,451.2,988,447.6z"/>
						<path class="white" d="M952.1,430.8c0.2,0,0.5-0.1,0.6-0.2c0.3,1,0.5,2.1,0.7,3.1c0.4,0,0.9-0.1,1.3-0.1
						c-0.3,0.8-1.2,0.7-1.8,0.9C952.7,433.2,952.4,432,952.1,430.8z"/>
						<path class="white" d="M955.1,430.3c1-1,2.8-0.5,3.2,0.8c0.5,1.4-1,2.9-2.4,2.4C954.5,433.2,954.1,431.2,955.1,430.3z
						 M955.6,430.8c-0.7,0.6-0.4,1.9,0.5,2.1c1,0.4,2-0.7,1.6-1.7C957.4,430.4,956.2,430.2,955.6,430.8z"/>
						<path class="white" d="M960.8,428.7c0.6-0.1,1.1-0.3,1.7-0.4l0.1,0.6c-0.3,0.1-0.8,0.2-1.1,0.3c0,0.2,0.1,0.5,0.2,0.7
						c0.4-0.1,0.7-0.2,1.1-0.2c0,0.2,0.1,0.5,0.2,0.7c-0.4,0.1-0.7,0.2-1.1,0.3c0.1,0.4,0.2,0.8,0.3,1.2c0.3-0.1,0.8-0.2,1-0.3
						l0.2,0.6c-0.6,0.1-1.2,0.3-1.7,0.4C961.4,431.2,961.1,429.9,960.8,428.7z"/>
						<path class="white" d="M958.2,429.3c0.7-0.1,1.6-0.5,2.2,0c0.5,0.4,0.4,1.1,0.4,1.6c0.2,0.6,1.1,1.5,0,1.7
						c-0.1-0.7-0.6-1.2-1.3-1.1c0.1,0.4,0.2,0.9,0.3,1.3l-0.6,0.1C958.8,431.8,958.5,430.5,958.2,429.3z M959,429.7
						c0.1,0.4,0.2,0.9,0.3,1.3c0.2-0.2,0.8-0.3,0.8-0.7C960.3,429.7,959.4,429.7,959,429.7z"/>
						<path class="white" d="M963.5,432c0-1.3,0-2.6,0.2-3.9c0.6,0.7,1.1,1.3,1.7,2c0.2-0.9,0.4-1.7,0.7-2.6c0.6,1.1,1.2,2.3,1.8,3.5
						c-1.1,0.4-1.1-0.9-1.5-1.5c-0.2,0.6-0.4,1.3-0.7,1.9c-0.4-0.5-0.9-1-1.3-1.5C964.2,430.7,964.7,432,963.5,432z"/>
					</g>
				</g>
			</g>
		</g>
	</symbol>
    <symbol id="arrow" viewbox="1306 364 85 80">
        <g>
            <path class="st3" d="M1382.8,401.7c0,0,3.4-2.1,6.8,2.3c3.3,4.3,0,7.7,0,7.7l-40.6,31.9l-40.6-31.9c0,0-3.3-3.4,0-7.7
			c3.3-4.3,6.8-2.3,6.8-2.3l33.9,26.7L1382.8,401.7z"/>
            <path class="st3" d="M1382.8,364.8c0,0,3.4-2.1,6.8,2.3c3.3,4.3,0,7.7,0,7.7l-40.6,31.9l-40.6-31.9c0,0-3.3-3.4,0-7.7
			c3.3-4.3,6.8-2.3,6.8-2.3l33.9,26.7L1382.8,364.8z"/>
        </g>
    </symbol>
</svg>
