<?xml version="1.0" encoding="utf-8"?>
<!-- Generator: Adobe Illustrator 19.2.0, SVG Export Plug-In . SVG Version: 6.00 Build 0)  -->
<svg version="1.1" id="logo" xmlns="http://www.w3.org/2000/svg" xmlns:xlink="http://www.w3.org/1999/xlink" x="0px" y="0px"
	 viewBox="0 0 353.4 55" style="enable-background:new 0 0 353.4 55;" xml:space="preserve">
<style type="text/css">
	.st0{fill:#FFFFFF;}
</style>
<g>
	<rect x="4.3" y="2.8" class="st0" width="49.4" height="49.4"/>
	<g>
		<path class="st0" d="M67,50.8c-1.7,0-3.5,0.1-5-1.5c-1.4-1.4-1.5-3.5-1.5-5.2V8.9c0-2.8,1-4.2,1.4-4.6c1.4-1.7,3.2-1.8,5-1.8h28.5
			v3.3h-28c-0.8,0-2,0.3-2.5,0.7c-0.8,0.6-0.8,1.9-0.8,2.4v15.5h30.5v3.3H64.1v17.2c0,0.6,0.2,1.5,0.7,1.9s2.3,0.6,3.1,0.6h27.7v3.3
			L67,50.8L67,50.8z"/>
		<path class="st0" d="M101.9,30.1h20.7v4h-20.7C101.9,34.1,101.9,30.1,101.9,30.1z"/>
		<path class="st0" d="M130.9,50.8V8.2c0-1.3,0-3.2,1.3-4.4s3.9-1.3,4.6-1.3h20c3.1,0,6.4,0.1,9.2,2.6c2.8,2.3,3.7,6,3.7,12.3
			c0,3.9-0.5,9-4,11.7c-1.7,1.3-4.1,2.1-6.5,2.1h-24.5v19.7L130.9,50.8L130.9,50.8z M157,27.8c4,0,5.9-1.2,6.8-2.2
			c1.8-2.1,1.9-7.4,1.9-9.2c0-1.7-0.1-6.2-2-8.4c-1-1.1-3-2.2-6.5-2.2h-19.7c-2.8,0-2.8,1.3-2.8,3v19H157z"/>
		<path class="st0" d="M188.1,7.1c1.1-2.6,2.5-5.1,5.4-5.1s4.3,2.6,5.4,5.1l18.5,43.8h-4l-5.9-14.1h-28l-5.9,14.1h-4L188.1,7.1z
			 M180.9,33.4H206L195.4,8.1c-0.4-1-1-2.8-2-2.8s-1.6,1.8-2,2.8L180.9,33.4z"/>
		<path class="st0" d="M261.2,45.4c0,0.8-0.1,2.9-1.3,4.1c-1,1-3.1,1.3-4.4,1.3h-18.7c-4.2,0-7.9-1.4-10.6-3.5
			c-6.2-5-6.8-13.5-6.8-20.4c0-8.1,0.8-17.1,8.6-21.7c3.9-2.3,8.3-2.7,11.3-2.7H260v3.3h-21.7c-6,0-10.5,3-12.6,7.3
			c-1.9,3.9-2.2,10-2.2,13.6c0,9,1.7,12.8,2.1,13.9c1.7,3.7,5.5,7,11.1,7h17.8c0.8,0,1.7,0,2.3-0.8c0.5-0.6,0.6-1.5,0.6-2.3V28.7
			h3.7L261.2,45.4L261.2,45.4z"/>
		<path class="st0" d="M276,50.8c-1.7,0-3.5,0.1-5-1.5c-1.4-1.4-1.5-3.5-1.5-5.2V8.9c0-2.8,1-4.2,1.4-4.6c1.4-1.7,3.2-1.8,5-1.8
			h28.5v3.3h-28c-0.8,0-2,0.3-2.5,0.7c-0.8,0.6-0.8,1.9-0.8,2.4v15.5h30.5v3.3h-30.5v17.2c0,0.6,0.2,1.5,0.7,1.9s2.3,0.6,3.1,0.6
			h27.7v3.3L276,50.8L276,50.8z"/>
		<path class="st0" d="M311.6,47.5h27.3c2.9,0,5.7-1.5,5.7-8.3c0-3.2-0.7-6.1-6.1-7.9l-19.3-6.6c-2.4-0.8-4.6-2.1-5.9-3.6
			c-2-2.3-2.4-5.2-2.4-7.8c0-2.5,0.3-5.9,3.2-8.4c1.4-1.2,3.9-2.4,7.7-2.4h24.5v3.3h-24.9c-1.7,0-3.9,0.6-5,1.9
			c-1.4,1.6-1.4,4.1-1.4,5.7c0,3,0.3,6,4.9,7.7l18.8,6.6c2.9,1,5.4,2,7,3.6c2.4,2.3,3,5.4,3,7.8c0,0.4,0.1,5.5-2.3,8.6
			c-2.2,2.9-5.2,3.2-7.7,3.2h-26.9v-3.4C311.8,47.5,311.6,47.5,311.6,47.5z"/>
	</g>
</g>
</svg>
