<?xml version="1.0" encoding="utf-8"?>
<!-- Generator: Adobe Illustrator 19.2.0, SVG Export Plug-In . SVG Version: 6.00 Build 0)  -->
<svg version="1.1" id="Слой_1" xmlns="http://www.w3.org/2000/svg" xmlns:xlink="http://www.w3.org/1999/xlink" x="0px" y="0px"
	 viewBox="0 0 156.5 139.7" style="enable-background:new 0 0 156.5 139.7;" xml:space="preserve">
<style type="text/css">
	.st0{fill:#444444;}
	.st1{fill:#006B82;}
	.st2{fill:#EBEBEB;}
	.st3{fill:#0086A4;}
	.st4{fill:#FFFFFF;}
</style>
<g>
	<g>
		<path class="st0" d="M88.9,8.4c4.7,4.7,9.4,9.3,14,14.1c-1.9-0.7-3.9-1-5.9-0.9c-5.1,0.3-9.7,3.4-13.1,7c-2.5-2.5-5-5.1-7.6-7.6
			C80.4,17,84.5,13,88.5,8.9C88.6,8.8,88.8,8.5,88.9,8.4z"/>
		<path class="st0" d="M114.7,34.3c3.7,3.6,7.3,7.2,10.9,10.9c-1,0.8-2.1,1.6-3.2,2.3c-1.2-0.4-2.6-0.6-3.6,0.4
			c-1.6,1.4-0.9,4.3,1.1,4.8c1.6,0.6,3.3-0.7,3.7-2.3c1.4-0.9,2.9-1.9,4.2-3c0.5,0.5,1,1,1.5,1.5c5.7,5.7,11.4,11.3,17,17.1
			c-5.4-2-10.7-4.2-16.1-6.3c-1.7,3.4-3.4,6.9-5.1,10.2c-5.9-5.9-11.8-11.8-17.7-17.7c3.2-2.7,6.1-6.1,7.4-10.2
			C115.6,39.5,115.4,36.8,114.7,34.3z"/>
		<path class="st0" d="M105.5,27.5c2.4,1.9,4.7,4.2,5.9,7c1,2.2,1.1,4.7,0.3,7c-1.2,3.4-3.8,6.1-6.5,8.4c-6.3-6.4-12.7-12.7-19-19
			c2.7-2.8,6-5.3,9.9-6c2.3-0.4,4.6,0,6.7,0.9c-0.2,0.3-0.5,0.6-0.7,0.9c-1,0.1-2.1,0.3-2.7,1.2c-0.7,0.8-0.7,2-0.4,2.9
			c0.4,0.5,0.8,1,1.3,1.4c1.1,0.4,2.5,0.4,3.4-0.6c0.8-0.7,0.9-1.8,0.8-2.8C104.8,28.4,105.1,28,105.5,27.5z"/>
		<path class="st0" d="M83.1,34.6c0,0.9,0.1,2-0.6,2.7c-0.9,1.2-2.8,1.4-4,0.4c-1.3-1-1.4-3.1-0.3-4.2c0.6-0.7,1.5-0.8,2.4-1
			c-0.4,0.5-0.7,1.1-1,1.7c-0.3,1,0.6,2,1.6,1.9C82.1,36.2,82.5,35.2,83.1,34.6z"/>
		<path class="st0" d="M96.5,55.9c-0.2-2,2.1-3.7,3.9-2.7c-0.7,0.7-1.6,1-2.3,1.7c-0.7,1,0.1,2.4,1.3,2.4c1.1-0.2,2-0.9,3-1.4
			c-0.3,1-0.7,2-1.7,2.4C98.8,59.2,96.5,57.8,96.5,55.9z"/>
		<path class="st0" d="M49.1,40c10.9,2.7,21.8,5.5,32.7,8.3c-1.9,7.1-3.6,14.2-5.5,21.3c-10.9-2.8-21.8-5.5-32.6-8.3
			C45.5,54.1,47.4,47.1,49.1,40z M71.6,51.3c-1,3.5-1.8,7.1-2.8,10.7c1.5,0.4,2.9,0.8,4.4,1.2c0.1-0.5,0.3-1.1,0.4-1.6
			c-0.9-0.2-1.8-0.5-2.8-0.7c0.3-1.2,0.6-2.3,0.9-3.5c0.9,0.2,1.9,0.5,2.8,0.7c0.2-0.6,0.4-1.3,0.4-1.9c-0.9-0.3-1.8-0.5-2.7-0.7
			c0.2-0.7,0.3-1.4,0.5-2.1c0.9,0.2,1.9,0.5,2.8,0.7c0.1-0.5,0.3-1.1,0.4-1.6C74.5,52.1,73,51.7,71.6,51.3z M66.3,50
			c-0.9,3.6-1.8,7.1-2.7,10.7c1.5,0.4,2.9,0.7,4.4,1.1c0.2-0.5,0.3-1.1,0.5-1.6c-0.9-0.2-1.9-0.5-2.8-0.7c0.8-3,1.6-6.1,2.3-9.1
			C67.4,50.2,66.8,50.1,66.3,50z M58.4,51c-0.9,2.5-1.3,5.2-2.1,7.8c0.5,0.2,1.1,0.3,1.6,0.5c0.4-1.4,0.7-2.8,1.1-4.3
			c1,0.3,2.1,0.5,3.1,0.8c-0.4,1.4-0.7,2.8-1.1,4.2c0.5,0.2,1.1,0.3,1.6,0.5c0.6-1.9,1-3.9,1.6-5.8c0.5-1.5,0.8-3.4-0.4-4.7
			C62.4,48,59.2,48.8,58.4,51z M53.6,47.2c-2,0.6-2.9,3.4-1.6,5.1c0.6,0.7,1.5,1.1,2.2,1.8c0.7,0.7,0.2,2.1-0.9,2.1
			c-1,0.1-1.8-0.5-2.4-1.2c-0.2,0.7-0.3,1.3-0.5,2c1.1,0.9,2.8,1.5,4.2,0.8c1.5-0.7,2-2.6,1.7-4.2c-0.3-1.3-1.7-1.8-2.6-2.6
			c-0.7-0.6-0.4-2,0.6-2.1c0.9-0.2,1.6,0.5,2.2,1c0.2-0.6,0.3-1.2,0.5-1.8C56.1,47.3,54.8,46.8,53.6,47.2z"/>
		<path class="st0" d="M60.5,51.1c0.7-0.6,1.8-0.4,2.3,0.4c0.5,0.8,0.1,1.8-0.1,2.7c-1.1-0.3-2.1-0.5-3.2-0.8
			C59.7,52.6,59.8,51.6,60.5,51.1z"/>
		<path class="st1" d="M124,20.6c2.7,1.3,5,3.5,6.9,5.9c1.7,2.2,2.7,5.1,2.3,8c-0.9-1.8-1.5-3.8-2.9-5.3c-2.2-2.6-4.9-5.1-8.2-6.1
			c-2.4-0.8-5.1-0.7-7.4,0.2c-2,0.8-3.8,2-5.6,3.3c-0.5-0.4-1-0.9-1.5-1.3c2.5-2.4,5.4-4.6,8.8-5.4C119,19.1,121.7,19.4,124,20.6z"
			/>
		<path class="st1" d="M136,37.1c0.2,1.2-0.2,2.3-0.6,3.4c-1.3,3.3-3.5,6-6,8.4c-0.5-0.5-1-1-1.5-1.5c3.3-2.6,6.2-5.9,7.8-9.8
			L136,37.1z"/>
		<path class="st1" d="M146.6,66c-0.5,0.6-0.9,1.2-1.4,1.8c0.4,0.4,0.7,0.9,1.1,1.3c-12,12.2-24.2,24.3-36.3,36.4
			c-7.5,7.4-14.9,14.9-22.4,22.4c-3.6-2.2-7.2-4.3-10.7-6.6c-3.7,3.3-7.1,7-10.6,10.5c-13.7-13.4-27.1-27.1-40.7-40.6
			c-5.6-5.7-11.4-11.3-17-17.1c0.5-0.5,1-1.1,1.5-1.6c18.8,18.7,37.5,37.5,56.3,56.3c3.5-3.5,7-7,10.6-10.5
			c3.6,2.2,7.2,4.4,10.8,6.7c5.8-5.6,11.4-11.3,17.1-17C118.8,93.9,132.7,80,146.6,66z"/>
		<path class="st1" d="M102.1,26.8c-0.7,0.9-1.4,1.9-1.5,3.2c-0.5,0.3-1.1,0.6-1.6,0.9c-0.2-1-0.3-2.1,0.4-2.9
			C100,27.1,101.1,26.9,102.1,26.8z"/>
		<path class="st1" d="M104.5,28.9c0.1,1,0,2.1-0.8,2.8c-0.9,0.9-2.3,0.9-3.4,0.6c0.3-0.6,0.7-1.1,1.1-1.7
			C102.8,31.5,103.8,30,104.5,28.9z"/>
		<path class="st1" d="M118.8,47.8c1-1,2.4-0.8,3.6-0.4c-1,0.7-2.1,1.2-3.1,1.9c-0.9,0.9-0.2,2.6,1.1,2.6c1.2-0.2,2.2-1,3.3-1.6
			c-0.4,1.6-2.1,2.8-3.7,2.3C117.9,52.1,117.2,49.2,118.8,47.8z"/>
		<path class="st2" d="M67.6,12.3c2.9,2.9,5.9,5.9,8.8,8.8c2.5,2.5,5.1,5,7.6,7.6c-1.2,1.2-2.3,2.6-3.3,3.9c-0.8,0.2-1.8,0.3-2.4,1
			c-1.2,1.1-1,3.2,0.3,4.2c1.2,1,3.1,0.8,4-0.4c0.7-0.7,0.6-1.8,0.6-2.7c0.9-1.3,1.9-2.6,3.1-3.7c6.3,6.3,12.7,12.7,19,19
			c-1.5,1.1-2.9,2.4-4.6,3.1l-0.2,0.1c-1.8-0.9-4.1,0.8-3.9,2.7c0,1.9,2.3,3.3,4,2.4c1-0.4,1.4-1.5,1.7-2.4c1.8-1.2,3.5-2.3,5.1-3.7
			c5.9,5.9,11.8,11.8,17.7,17.7c-16,16.1-32.1,32.2-48.2,48.2c-3.5,3.5-7,7-10.6,10.5c-18.7-18.8-37.5-37.5-56.3-56.3
			c-0.4-0.4-0.9-0.8-1.3-1.2c3.9-4.2,8-8.1,12-12.1C36.4,43.5,52,27.9,67.6,12.3z M49.1,40c-1.7,7.1-3.6,14.2-5.4,21.3
			c10.9,2.9,21.8,5.6,32.6,8.3c1.8-7.1,3.6-14.2,5.5-21.3C70.9,45.4,60,42.6,49.1,40z"/>
		<path class="st3" d="M146.4,66l0.2,0.1c-13.9,13.9-27.8,27.9-41.8,41.8c-5.7,5.7-11.3,11.4-17.1,17c-3.6-2.3-7.2-4.4-10.8-6.7
			C93,102.1,109.1,86,125.1,69.9c1.8-3.4,3.4-6.8,5.1-10.2C135.6,61.7,141,63.9,146.4,66z"/>
		<path class="st3" d="M78.2,14.6c3.5-1.9,6.8-4,10.3-5.7c-4,4.1-8.1,8.2-12.2,12.2c-2.9-2.9-5.9-5.9-8.8-8.8
			C71.1,13,74.7,13.8,78.2,14.6z"/>
		<path class="st4" d="M118.6,16.3c4.4-0.2,8.5,2,11.6,4.9c2.9,2.6,5.4,6,6,9.9c0.4,2.2,0,4.4-0.7,6.5c-1.6,3.9-4.5,7.2-7.8,9.8
			c-1.3,1.1-2.8,2.1-4.2,3c-1,0.6-2,1.4-3.3,1.6c-1.3,0.1-2-1.7-1.1-2.6c1-0.8,2.1-1.3,3.1-1.9c1.1-0.7,2.2-1.5,3.2-2.3
			c3.4-2.8,6.8-6.2,7.6-10.7c0.5-2.8-0.6-5.7-2.3-8c-1.8-2.4-4.1-4.5-6.9-5.9c-2.3-1.2-5.1-1.5-7.6-0.9c-3.4,0.8-6.3,3-8.8,5.4
			c0.5,0.4,1,0.9,1.5,1.3c2.4,2.1,4.4,4.8,5.6,7.8c0.7,2.5,0.9,5.2,0.1,7.7c-1.2,4.1-4.2,7.4-7.4,10.2c-1.6,1.4-3.4,2.5-5.1,3.7
			c-1,0.5-1.9,1.3-3,1.4c-1.2,0-2-1.5-1.3-2.4c0.7-0.7,1.6-1,2.3-1.7l0.2-0.1c1.7-0.8,3.1-2,4.6-3.1c2.7-2.3,5.3-5,6.5-8.4
			c0.8-2.2,0.7-4.8-0.3-7c-1.2-2.9-3.5-5.1-5.9-7c-0.3,0.5-0.7,1-1,1.4c-0.7,1-1.7,2.6-3.1,1.7c-0.2-0.2-0.5-0.5-0.7-0.7
			c0-1.2,0.7-2.2,1.5-3.2c0.2-0.3,0.5-0.6,0.7-0.9c-2.1-0.9-4.5-1.4-6.7-0.9c-3.9,0.7-7.2,3.2-9.9,6C85,32,84,33.3,83.1,34.6
			c-0.5,0.6-1,1.6-1.9,1.6c-1,0.1-1.9-1-1.6-1.9c0.2-0.6,0.6-1.2,1-1.7c1-1.4,2.2-2.7,3.3-3.9c3.5-3.6,8-6.7,13.1-7
			c2-0.1,4,0.2,5.9,0.9c0.7,0.3,1.4,0.6,2,0.9C108.5,19.7,113.3,16.4,118.6,16.3z"/>
		<path class="st4" d="M71.6,51.3c1.5,0.4,2.9,0.8,4.4,1.2c-0.1,0.5-0.3,1.1-0.4,1.6c-0.9-0.3-1.9-0.5-2.8-0.7
			c-0.2,0.7-0.3,1.4-0.5,2.1c0.9,0.2,1.8,0.4,2.7,0.7c-0.1,0.6-0.3,1.3-0.4,1.9c-0.9-0.2-1.9-0.5-2.8-0.7c-0.3,1.2-0.6,2.3-0.9,3.5
			c0.9,0.2,1.8,0.5,2.8,0.7c-0.1,0.5-0.3,1.1-0.4,1.6c-1.5-0.4-2.9-0.8-4.4-1.2C69.8,58.4,70.6,54.8,71.6,51.3z"/>
		<path class="st4" d="M66.3,50c0.5,0.1,1.1,0.3,1.6,0.4c-0.7,3-1.5,6.1-2.3,9.1c0.9,0.2,1.9,0.5,2.8,0.7c-0.2,0.5-0.3,1.1-0.5,1.6
			c-1.5-0.4-2.9-0.8-4.4-1.1C64.5,57.1,65.4,53.5,66.3,50z"/>
		<path class="st4" d="M58.4,51c0.8-2.1,3.9-2.9,5.4-1.1c1.2,1.3,0.9,3.2,0.4,4.7c-0.5,1.9-0.9,3.9-1.6,5.8
			c-0.5-0.2-1.1-0.3-1.6-0.5c0.4-1.4,0.7-2.8,1.1-4.2c-1-0.3-2.1-0.6-3.1-0.8c-0.4,1.4-0.7,2.8-1.1,4.3c-0.5-0.2-1.1-0.3-1.6-0.5
			C57.1,56.2,57.6,53.5,58.4,51z M60.5,51.1c-0.7,0.5-0.8,1.5-1,2.3c1.1,0.3,2.1,0.5,3.2,0.8c0.2-0.9,0.6-1.9,0.1-2.7
			C62.3,50.7,61.1,50.5,60.5,51.1z"/>
		<path class="st4" d="M53.6,47.2c1.2-0.4,2.5,0.1,3.4,0.8c-0.2,0.6-0.3,1.2-0.5,1.8c-0.7-0.5-1.4-1.1-2.2-1
			c-0.9,0.2-1.3,1.5-0.6,2.1c0.9,0.8,2.3,1.3,2.6,2.6c0.3,1.5-0.2,3.5-1.7,4.2c-1.4,0.6-3,0.1-4.2-0.8c0.2-0.7,0.4-1.3,0.5-2
			c0.6,0.7,1.4,1.3,2.4,1.2c1,0,1.5-1.4,0.9-2.1c-0.7-0.7-1.6-1.1-2.2-1.8C50.7,50.6,51.6,47.8,53.6,47.2z"/>
	</g>
	<g>
		<g>
			<path class="st0" d="M60.8,99.1c2.2,0,3.9,1.6,3.9,3.8c0,2.3-1.6,3.8-3.9,3.8c-2.2,0-3.9-1.5-3.9-3.8
				C56.9,100.6,58.6,99.1,60.8,99.1z M66.6,100.2l1.1,0c2.2-0.1,4.4,0.6,6.7,2.5c1.6,1.4,3,2.5,4.4,2.5c1.5,0,2.5-1,2.5-3.1
				c0-1.4-0.5-3.1-1.3-4.2l4.6-1.4c0.9,1.5,1.7,4.1,1.7,7.1c0,5.6-3.1,8.1-6.6,8.1c-3.2,0-5.3-2-7.1-3.6c-1.7-1.6-3.4-2.2-5.3-2.2
				h-0.8V100.2z"/>
		</g>
		<g>
			<path class="st0" d="M51.2,92.7l0.2-1.1c0.3-2.1,1.5-4.1,3.9-6c1.7-1.3,3-2.4,3.4-3.8c0.3-1.4-0.4-2.6-2.5-3.2
				c-1.4-0.3-3.1-0.2-4.4,0.3l-0.4-4.8c1.7-0.5,4.4-0.8,7.3-0.2c5.5,1.2,7.3,4.8,6.5,8.2c-0.7,3.1-3.1,4.8-5.1,6.2
				c-1.9,1.4-2.9,2.8-3.3,4.7l-0.2,0.7L51.2,92.7z M48.9,98.2c0.5-2.2,2.4-3.4,4.5-2.9c2.2,0.5,3.3,2.4,2.9,4.6
				c-0.5,2.2-2.3,3.4-4.6,2.9C49.5,102.3,48.4,100.3,48.9,98.2z"/>
		</g>
		<g>
			<path class="st3" d="M57.9,94.9l1.1-1.2c2.2-2.5,5.4-4.1,9.9-4.5c3.2-0.3,5.9-0.5,7.4-2.1c1.6-1.6,1.6-3.7-0.6-6.1
				c-1.5-1.5-3.9-2.8-5.9-3.2l3.4-6.5c2.6,0.7,6.3,2.5,9.5,5.8c6,6,5.4,12.1,1.6,15.9c-3.5,3.5-7.9,3.6-11.6,3.8
				c-3.6,0.2-6,1.3-8.1,3.4L64,101L57.9,94.9z M50.4,100c2.4-2.4,5.9-2.5,8.2-0.1c2.5,2.5,2.3,5.8,0,8.3c-2.4,2.4-5.8,2.5-8.3,0
				C47.9,105.8,48,102.4,50.4,100z"/>
		</g>
	</g>
</g>
</svg>
