<?xml version="1.0" encoding="utf-8"?>
<!-- Generator: Adobe Illustrator 19.2.0, SVG Export Plug-In . SVG Version: 6.00 Build 0)  -->
<svg version="1.1" id="Слой_1" xmlns="http://www.w3.org/2000/svg" xmlns:xlink="http://www.w3.org/1999/xlink" x="0px" y="0px"
	 viewBox="0 0 212.5 149" style="enable-background:new 0 0 212.5 149;" xml:space="preserve">
<style type="text/css">
	.st0{fill:#444444;}
	.st1{fill:#0086A3;}
</style>
<g>
	<g>
		<g>
			<path class="st0" d="M68.7,86.8v19H11.5v-19h18.8V53.1c-0.8,1.1-2,2.1-3.7,3.2c-1.7,1.1-3.6,2.1-5.6,3c-2.1,0.9-4.2,1.7-6.3,2.2
				c-2.2,0.6-4.1,0.9-5.8,0.9V42.9c1.4,0,3.2-0.5,5.5-1.5c2.2-1,4.5-2.1,6.7-3.5c2.2-1.4,4.2-2.8,6-4.2c1.8-1.4,2.9-2.6,3.3-3.4
				h21.6v56.5H68.7z"/>
		</g>
	</g>
	<g>
		<g>
			<path class="st1" d="M70.3,135.2c0-4.1,0.3-7.8,0.9-11.1c0.6-3.3,1.7-6.2,3.2-8.9c1.5-2.7,3.5-5.2,6.1-7.5
				c2.6-2.3,5.8-4.5,9.7-6.7c4.1-2.3,7.6-4.2,10.4-5.7c2.8-1.5,5-2.8,6.6-4c1.6-1.1,2.8-2.2,3.5-3.1c0.7-0.9,1.1-2,1.1-3.2
				c0-2.5-0.9-4.5-2.6-6c-1.8-1.5-4.3-2.2-7.5-2.2c-3.7,0-6.9,0.9-9.7,2.7c-2.7,1.8-5.4,4.2-7.9,7.1L70.4,70.9
				c1.4-1.6,3.3-3.1,5.7-4.6c2.4-1.5,5.1-2.8,8.1-4c3-1.2,6.3-2.1,9.9-2.8c3.6-0.7,7.3-1.1,11.2-1.1c9.5,0,16.8,2.1,21.9,6.2
				c5.1,4.1,7.6,9.7,7.6,16.8c0,2.9-0.5,5.5-1.4,7.8c-0.9,2.3-2.1,4.3-3.6,6.2c-1.5,1.8-3.2,3.4-5,4.8c-1.9,1.4-3.7,2.6-5.7,3.8
				c-1.3,0.8-2.9,1.7-4.8,2.8c-1.9,1.1-3.7,2.1-5.5,3.2c-1.8,1.1-3.5,2.2-5,3.3c-1.5,1.1-2.7,2.1-3.5,3h36v19H70.3z"/>
		</g>
	</g>
	<g>
		<g>
			<path class="st0" d="M180.7,53.4c2.7,0.5,5.2,1.5,7.5,2.8c2.3,1.4,4.3,3.1,5.9,5.2c1.6,2.1,2.9,4.5,3.8,7.1
				c0.9,2.7,1.3,5.6,1.3,8.7c0,4.1-0.8,7.9-2.5,11.2c-1.7,3.3-4.1,6.1-7.2,8.5c-3.1,2.3-6.9,4.1-11.3,5.4c-4.4,1.3-9.3,1.9-14.8,1.9
				c-13.4,0-23.9-3.9-31.5-11.8l11.4-15.1c2.4,2.5,5.1,4.3,8.1,5.6c3,1.3,6.7,1.9,10.9,1.9c10,0,14.9-3.7,14.9-11c0-4-1.5-7-4.4-9
				c-3-2-7.6-3-14-3h-4V46.7h4.4c4.9,0,8.8-1,11.6-3c2.8-2,4.2-4.7,4.2-8.1c0-2.9-1-5.1-3-6.6c-2-1.5-4.7-2.2-8.1-2.2
				c-3.6,0-6.9,0.9-9.9,2.6c-3,1.7-5.4,4.2-7.5,7.3l-13.4-15.3c1.4-1.9,3.3-3.6,5.6-5.2c2.3-1.6,4.9-2.9,7.8-4c2.9-1.1,6-2,9.4-2.6
				c3.4-0.6,6.8-0.9,10.3-0.9c4.7,0,8.9,0.6,12.8,1.7c3.9,1.1,7.2,2.7,9.9,4.8c2.7,2.1,4.8,4.5,6.3,7.4c1.5,2.9,2.2,6.1,2.2,9.6
				c0,2.6-0.4,5.2-1.3,7.5c-0.8,2.4-2,4.5-3.5,6.5c-1.5,1.9-3.3,3.6-5.4,4.8C185.5,52.1,183.2,53,180.7,53.4z"/>
		</g>
	</g>
</g>
</svg>
