<?xml version="1.0" encoding="utf-8"?>
<!-- Generator: Adobe Illustrator 19.2.0, SVG Export Plug-In . SVG Version: 6.00 Build 0)  -->
<svg version="1.1" id="Слой_1" xmlns="http://www.w3.org/2000/svg" xmlns:xlink="http://www.w3.org/1999/xlink" x="0px" y="0px"
	 viewBox="0 0 161.5 149" style="enable-background:new 0 0 161.5 149;" xml:space="preserve">
<style type="text/css">
	.st0{fill:#006B82;}
	.st1{fill:#444444;}
	.st2{fill:#F2F8F6;}
</style>
<g>
	<path class="st0" d="M117.7,11.3c0.3-0.1,0.8-0.4,1.1-0.5c3.6,6.6,7,13.3,10.3,20c-0.3,0.1-0.9,0.2-1.2,0.3
		C124.5,24.5,121.1,17.9,117.7,11.3z"/>
	<path class="st0" d="M132.6,33.8c0.7-0.2,1.5-0.3,2.2-0.4c1.3,4.8,2.4,9.8,3.7,14.6c0.5,2.1,1.8,4,2.7,5.9c2,4,4.2,7.9,6,11.9
		c-1.2,0.6-2.4,1.2-3.7,1.9c1.9,8.6,4.4,17,6.4,25.6c-1.4,0.4-2.8,0.7-4.2,1.3c0.1,1,0.5,1.9,0.8,2.8c2.4,6.7,1.2,14.5-3.1,20.1
		c-2.5,3.5-6.3,6-10.3,7.4c-7.5,2.5-16.6,0.7-21.9-5.3l0.8,0.1c3.6,2,7.6,3.2,11.7,3.1c7.2-0.1,14.2-4.2,17.9-10.4
		c3.8-6.2,4.1-14.5,0.7-21c1.5-0.5,3-0.9,4.5-1.3c-2.1-8.6-4.3-17.1-6.5-25.7c1.3-0.6,2.5-1.3,3.8-1.9c-2.6-5.4-5.5-10.5-8.1-15.9
		C134.5,42.5,133.8,38.1,132.6,33.8z"/>
	<path class="st0" d="M38.3,117.7c21.2-5.3,42.3-10.7,63.5-16c0,1,0.1,2,0.2,2.9c0,0.3-0.1,0.8-0.2,1.1c-17.3,4.3-34.5,8.6-51.7,13
		c-4.2,1.3-8.6,1.7-12.5,3.7c-1.2,0.6-2.5,0.2-3.8,0.5c-1.7,0.4-3.3,0.9-5,1.3c-0.4-1.2-0.6-2.5-0.8-3.7c1.5-0.4,2.9-0.7,4.4-1.1
		c0.3,0.1,0.8,0.4,1.1,0.5C34.9,118.9,36.5,118.1,38.3,117.7z"/>
	<path class="st1" d="M15,59.5C48.6,42.2,82.1,24.7,115.7,7.6c0.8,1.1,1.4,2.5,2,3.7c3.4,6.6,6.8,13.2,10.3,19.8
		c0.3-0.1,0.9-0.2,1.2-0.3c0.8-0.2,1.7-0.4,2.5-0.7c0.3,1.2,0.6,2.5,1,3.7c1.2,4.3,2,8.7,3.4,12.9c2.6,5.3,5.5,10.5,8.1,15.9
		c-1.3,0.6-2.5,1.3-3.8,1.9c2.2,8.6,4.3,17.1,6.5,25.7c-1.5,0.4-3,0.8-4.5,1.3c-2-3.9-5.3-7.2-9.3-9.2c1.2-2.3,2.9-4.2,5.3-5
		c-2.7-10.6-5.3-21.1-8-31.7c-1.9,0.1-3.9,0.1-5.5-1c-2-1.1-3.1-3.2-3.9-5.2c-32.2,8.2-64.4,16.3-96.5,24.4c0.2,2.1,0.3,4.4-0.9,6.3
		c-0.9,1.8-2.7,2.9-4.5,3.7c2.7,10.6,5.3,21.1,8,31.7c1.8-0.1,3.8-0.1,5.4,0.9c2.1,1.1,3.2,3.2,4.1,5.3
		c22.1-5.6,44.2-11.2,66.4-16.8c-0.6,2.2-1,4.4-1,6.7c-21.2,5.3-42.3,10.7-63.5,16c-1.8,0.4-3.4,1.2-5,2.1c-0.3-0.1-0.8-0.4-1.1-0.5
		c-1.5,0.4-2.9,0.7-4.4,1.1c-0.8,0.2-1.5,0.4-2.3,0.6c-2.3-9.5-4.8-19-7.2-28.5c-0.5-2.1-1.7-4-2.7-6C12,79.3,8.3,72.1,4.6,64.9
		c2-1.4,5.1-1.7,6.1-4.1C12.1,60.3,13.6,60.1,15,59.5z M41.5,52.9c4.7-1.1,9.3-2.3,13.9-3.5c1.2-0.2,1.8-1.4,2.7-2.2
		c6.4-6.5,16.9-8.5,25.3-4.9c8-1.9,15.9-4.1,24-6c0-0.3,0-0.8-0.1-1.1c0.6-0.3,1.1-0.5,1.7-0.8c0.2,0.3,0.5,0.9,0.6,1.2
		c4.4-1.1,8.9-2,13.2-3.4c-1.5-3.2-3.2-6.3-4.8-9.5c-3.9,1.9-8.6-0.2-10.6-3.9C85.4,30.2,63.4,41.5,41.5,52.9z M67.1,46.2
		c2.3-0.1,4.5-0.8,6.7-1.4C71.5,44.1,69,44.9,67.1,46.2z"/>
	<path class="st1" d="M73.4,52.9c6.3-1.5,13.2-0.1,18.4,3.6c5.4,3.7,9.1,9.9,9.8,16.5c0.8,6.9-1.8,14.1-6.8,19
		c-4.8,4.8-11.8,7.2-18.5,6.6c-7.2-0.7-13.9-4.9-17.6-11.1c-3.8-6.3-4.4-14.4-1.4-21.1C60.1,59.7,66.3,54.5,73.4,52.9z M69.4,59.6
		c-2.3,1.8-3.9,4.6-4,7.5c-0.1,3.4,0.2,7,2.2,9.8c1.6,2.2,4.3,2.9,6.4,4.4c2,1.3,3.1,3.9,2.3,6.2c-0.8,1.3-2.2,2.2-2.8,3.6
		c-0.8,1.9-0.8,4-0.9,6c6,0.7,12.1-0.7,17.5-3.3c1-0.6,3.3-1.8,1.9-3.1c-1.6-1-3.5-1.7-4.7-3.2c0.1-1.3-0.3-2.8,0.6-3.8
		c1.6-1.6,4.2-1.8,5.7-3.4c1.1-1.4-0.2-3-0.8-4.4c0.6-1.3,0.1-2.7-0.5-3.9c0.4-0.7,0.9-1.3,1.3-2.1c-1.1-1.1-2.7-1.8-3.6-3.1
		c-1.1-1.2-1.1-2.9-1.5-4.5c-0.5-2.9-3.2-5.1-6-5.7C78.1,55.6,73.1,56.8,69.4,59.6z"/>
	<path class="st2" d="M67.1,46.2c1.9-1.3,4.4-2.1,6.7-1.4C71.6,45.4,69.4,46.1,67.1,46.2z"/>
	<path class="st1" d="M116.3,55.3c1-0.2,2.2-0.7,2.2,0.8c1.2,0.1,2.5,0,3.4,0.9c1,0.8,1.2,2,1.5,3.1c-1.4,0.3-2.7,0.7-4.1,1
		c-0.3-0.8-0.4-1.8-1.1-2.3c-1.4,0-0.8,1.9-0.2,2.5c1.8,1,4,1.1,5.8,2.3c1.7,1.4,2.3,4,1.8,6.1c-0.4,1.5-1.7,2.3-2.9,3
		c0.1,0.4,0.2,1.1,0.3,1.5c-0.6,0.1-1.3,0.3-1.9,0.4c-0.1-0.3-0.2-1.1-0.3-1.4c-1.3-0.1-2.8-0.1-3.8-1.1c-1.1-1-1.4-2.5-1.9-3.9
		c1.4-0.4,2.7-0.7,4.1-1.1c0.3,1.1,0.6,2.3,1.2,3.4c1.9-0.2,0.8-2.3,0.3-3.3c-1.7-1.5-4.5-1.3-6-3.1c-1.4-1.6-2-4.3-0.5-6
		C115,57.2,117.1,57,116.3,55.3z"/>
	<path class="st1" d="M34.2,76.3c0.6-0.2,1.2-0.3,1.8-0.5c0.1,0.3,0.3,0.9,0.4,1.2c2.6-0.4,4.7,1.5,5,4c-1.4,0.4-2.7,0.7-4.1,1.1
		c-0.4-0.7-0.3-2-1.2-2.3c-1.3,0.2-0.7,1.8-0.2,2.5c1.9,1.2,4.3,1.2,6,2.5c1.5,1.5,2.1,4,1.5,6c-0.4,1.4-1.7,2.2-2.9,2.9
		c0,0.4,0.1,1.1,0.1,1.5c-0.6,0.1-1.2,0.3-1.8,0.4c-0.1-0.4-0.2-1.1-0.3-1.4c-1.2-0.1-2.5-0.1-3.5-0.8c-1.3-1-1.7-2.7-2.1-4.1
		c1.4-0.3,2.7-0.7,4.1-1c0.5,1.1,0.3,2.7,1.5,3.3c1.2-0.3,0.6-1.7,0.4-2.5c-0.5-1.8-2.7-1.8-4.1-2.5c-2.6-0.7-4.3-3.8-3.5-6.4
		c0.5-1.3,1.8-2,2.9-2.6C34.4,77.3,34.3,76.6,34.2,76.3z"/>
	<path class="st1" d="M114.2,81.9c5.9-2.7,13-2.6,18.8,0.4c3.9,2,7.2,5.3,9.3,9.2c3.4,6.5,3.2,14.7-0.7,21
		c-3.7,6.2-10.7,10.3-17.9,10.4c-4.1,0.2-8.1-1.1-11.7-3.1c-5.3-3.4-9.1-9-10-15.2c-0.1-1-0.1-2-0.2-2.9c0-2.3,0.3-4.5,1-6.7
		C104.5,89.2,108.8,84.4,114.2,81.9z M119,85c-2.7,0.7-5.2,2.1-7.3,4c-5.7,5.2-7.1,14.4-3,21c4.1,7.2,13.7,10.3,21.2,6.9
		c8-3.2,12.3-13.1,9.2-21.2C136.5,87.7,127.2,82.7,119,85z"/>
	<path class="st1" d="M122.2,86.9c0.9,0,1.8,0,2.6,0c0,0.6,0,1.2,0.1,1.8c1.5,0.3,3.1,0.7,4.1,2c1.2,1.4,1.2,3.3,1.2,5
		c-1.9,0-3.9,0-5.8,0c-0.3-1.1,0.5-3.4-1.3-3.5c-1.3,0.5-1,2.4-0.5,3.4c2.3,2.4,6.2,3.1,7.7,6.3c0.9,2.5,0.9,5.5-0.6,7.8
		c-1.1,1.7-3,2.3-4.9,2.7c0,0.7,0,1.4,0,2.1c-0.9,0-1.8,0-2.6,0c0-0.7,0-1.3-0.1-2c-1.4-0.7-3.1-0.9-4.1-2.1
		c-1.7-1.7-1.6-4.3-1.7-6.5c1.9,0,3.9,0,5.8,0c0.3,1.6-0.6,3.8,0.8,5c1.9,0,1.4-2.3,1.3-3.5c0-1.5-1.4-2.3-2.5-3
		c-1.8-1.2-3.9-2.3-4.8-4.3c-1-2.2-1.1-5,0.4-7c1.1-1.5,3-1.9,4.7-2.3C122.2,88.1,122.2,87.5,122.2,86.9z"/>
</g>
</svg>
