<?xml version="1.0" encoding="utf-8"?>
<!-- Generator: Adobe Illustrator 19.2.0, SVG Export Plug-In . SVG Version: 6.00 Build 0)  -->
<svg version="1.1" id="Слой_1" xmlns="http://www.w3.org/2000/svg" xmlns:xlink="http://www.w3.org/1999/xlink" x="0px" y="0px"
	 viewBox="0 0 170.3 145.7" style="enable-background:new 0 0 170.3 145.7;" xml:space="preserve">
<style type="text/css">
	.st0{fill:#EBEBEB;}
	.st1{fill:none;}
	.st2{fill:#444444;}
	.st3{fill:#006B82;}
	.st4{fill:#0086A4;}
	.st5{fill:#FFFFFF;}
	.st6{fill:#FDF5F4;}
	.st7{fill:#FEFFFE;}
</style>
<g>
	<g>
		<path class="st0" d="M45.9,36.4c4,17,8,34.1,12,51.1c0.5,2.5,3.4,3.9,5.8,3.3c28.7-6.7,57.5-13.5,86.2-20.2
			c1.2-0.3,2.5-0.5,3.5-1.3c1.4-1,2.2-2.8,1.7-4.5c-2.1-8.8-4.1-17.6-6.2-26.4l-6-25.5c-0.2-0.4-0.4-0.7-0.7-1.1
			c-0.8-1-2.1-1.5-3.4-1.6L47.6,31.8C46.2,32.9,45.4,34.7,45.9,36.4z"/>
		<path class="st1" d="M110.6,86.4c-0.1-0.3-0.2-0.6-0.2-0.9c0.3-0.1,0.5-0.1,0.8-0.2c0-0.1-0.1-0.4-0.1-0.5
			c-0.3,0.1-0.5,0.1-0.8,0.2c0-0.1-0.1-0.4-0.1-0.5c0.2,0,0.6-0.1,0.8-0.2l-0.1-0.4c-0.4,0.1-0.9,0.2-1.3,0.3
			c0.2,0.9,0.4,1.8,0.6,2.7c0.4-0.1,0.9-0.2,1.3-0.3l-0.1-0.4C111.2,86.3,110.8,86.4,110.6,86.4z"/>
		<path class="st1" d="M109.2,84.7c-0.5-0.4-1.1-0.1-1.6,0c0.2,0.9,0.4,1.9,0.7,2.8l0.5-0.1c-0.1-0.3-0.1-0.6-0.2-1
			c0.6-0.1,0.9,0.3,1,0.8c0.8-0.1,0.1-0.8,0-1.3C109.5,85.5,109.6,85,109.2,84.7z"/>
		<path class="st1" d="M112.9,85.3c-0.4-0.5-0.8-1-1.2-1.5c-0.1,1-0.1,1.9-0.1,2.9c0.9,0,0.5-1,0.6-1.5c0.3,0.4,0.7,0.7,1,1.1
			c0.2-0.5,0.3-0.9,0.5-1.4c0.3,0.5,0.3,1.4,1.1,1.1c-0.4-0.9-0.9-1.7-1.3-2.6C113.2,84,113.1,84.6,112.9,85.3z"/>
		<path class="st1" d="M103.5,85.6c-0.1,0-0.4,0.1-0.5,0.1c0.2,0.9,0.4,1.8,0.6,2.7c0.5-0.2,1.2-0.1,1.4-0.7c-0.3,0-0.7,0-1,0.1
			C103.9,87.1,103.7,86.4,103.5,85.6z"/>
		<path class="st1" d="M105.3,85.4c-0.8,0.7-0.5,2.1,0.6,2.4c1.1,0.4,2.2-0.8,1.8-1.8C107.4,85,106,84.7,105.3,85.4z"/>
		<path class="st1" d="M137.2,10.3c-28.7,6.7-57.3,13.4-86,20.2c-1,0.2-2,0.4-2.9,0.9c-0.3,0.1-0.6,0.3-0.8,0.5l91.3-21.7
			C138.3,10.1,137.8,10.2,137.2,10.3z"/>
		<path class="st1" d="M143.5,14.9c-0.2-0.7-0.3-1.5-0.6-2.1l6,25.5C147.1,30.5,145.3,22.7,143.5,14.9z"/>
		<path class="st2" d="M160.8,73.5c-4.9-20.7-9.7-41.4-14.6-62.2c-0.2-0.9-0.6-1.7-1.1-2.4c-1.3-1.5-3.5-2.3-5.4-1.7
			c-31.2,7.3-62.4,14.6-93.6,22c-2.8,0.6-4.7,3.6-4,6.4c4.8,20.7,9.7,41.3,14.5,62c0.1,0.4,0.2,0.9,0.4,1.3c0.1,0.2,0.2,0.4,0.3,0.7
			c0.3,0.4,0.5,0.8,0.9,1.1c0.7,0.7,1.7,1.2,2.7,1.5c0.8,0.1,1.6,0.1,2.4,0c12.1-2.8,24.2-5.7,36.4-8.5c0.1,0.7,0.3,1.3,0.5,2
			c0.5,2.2,1,4.4,1.6,6.6c-2.3,0.6-4.7,1-7,1.7c-0.9,0.3-1.1,1.6-0.4,2.2c0.5,0.5,1.3,0.3,2,0.1c11.2-2.7,22.5-5.3,33.7-7.9
			c0.5-0.1,0.9-0.5,1.2-0.9c0.3-0.9-0.6-2-1.5-1.7c-1.6,0.3-3.2,0.8-4.8,1.1c-0.7,0.2-1.4,0.3-2.1,0.5c-0.7-2.9-1.4-5.8-2-8.6
			c12.1-2.8,24.1-5.7,36.2-8.5C159.7,79.6,161.6,76.4,160.8,73.5z M48.4,31.3c0.9-0.5,1.9-0.6,2.9-0.9c28.7-6.7,57.3-13.4,86-20.2
			c0.5-0.1,1.1-0.2,1.7-0.1c1.3,0.1,2.5,0.6,3.4,1.6c0.3,0.3,0.5,0.7,0.7,1.1c0.3,0.7,0.4,1.4,0.6,2.1c1.8,7.8,3.6,15.5,5.5,23.3
			c2.1,8.8,4.1,17.6,6.2,26.4c0.5,1.7-0.3,3.5-1.7,4.5c-1,0.8-2.3,1.1-3.5,1.3C121.5,77.1,92.7,83.9,64,90.6
			c-2.4,0.6-5.3-0.7-5.8-3.3c-4-17-8-34.1-12-51.1c-0.5-1.7,0.3-3.5,1.7-4.6C47.8,31.6,48.1,31.5,48.4,31.3z M103.7,88.5
			c-0.2-0.9-0.4-1.8-0.6-2.7c0.1,0,0.4-0.1,0.5-0.1c0.2,0.8,0.4,1.5,0.5,2.3c0.3,0,0.7-0.1,1-0.1C104.9,88.4,104.2,88.3,103.7,88.5z
			 M105.9,87.8c-1-0.3-1.3-1.7-0.6-2.4c0.7-0.7,2.1-0.4,2.4,0.6C108.1,87.1,106.9,88.2,105.9,87.8z M109.5,87.2
			c-0.1-0.6-0.4-0.9-1-0.8c0.1,0.3,0.1,0.6,0.2,1l-0.5,0.1c-0.2-0.9-0.4-1.8-0.7-2.8c0.5-0.1,1.2-0.4,1.6,0c0.4,0.3,0.3,0.8,0.3,1.2
			C109.6,86.3,110.3,87,109.5,87.2z M110.2,87c-0.2-0.9-0.4-1.8-0.6-2.8c0.4-0.1,0.9-0.2,1.3-0.3l0.1,0.4c-0.2,0-0.6,0.1-0.8,0.2
			c0,0.1,0.1,0.4,0.1,0.5c0.3-0.1,0.5-0.1,0.8-0.2c0,0.1,0.1,0.4,0.1,0.5c-0.3,0.1-0.6,0.1-0.8,0.2c0.1,0.3,0.2,0.6,0.2,0.9
			c0.2,0,0.6-0.1,0.8-0.2l0.1,0.4C111,86.8,110.6,86.9,110.2,87z M113.6,84.8c-0.2,0.5-0.3,1-0.5,1.4c-0.3-0.4-0.6-0.8-1-1.1
			c-0.1,0.6,0.3,1.5-0.6,1.5c0-1,0-1.9,0.1-2.9c0.4,0.5,0.8,1,1.2,1.5c0.2-0.6,0.3-1.3,0.5-1.9c0.5,0.8,0.9,1.7,1.3,2.6
			C113.9,86.3,113.9,85.3,113.6,84.8z"/>
	</g>
	<g>
		<g>
			<path class="st2" d="M75.4,123.1c0.4-1.7,2-3,3.7-2.9c0.9,0,1.7,0.4,2.4,1C79.4,121.5,77.3,122.1,75.4,123.1z"/>
			<path class="st2" d="M69.3,130.4c0.2-2.6,2.1-4.7,4.2-6.2c0.2,0.8,0.9,1.4,1.5,1.8c5.2-1.4,10.6-1.8,15.9-1.1
				c2.5,0.2,5,0.9,7.5,0.7c0.9,0,1.5-0.7,1.9-1.5c1.2,0.8,2.3,1.7,3.1,2.9c0.7,1.1,1.1,2.4,0.9,3.7c-0.1,1.7-1.1,3.5-2.7,4.3
				c-1,0.5-2.1,0.3-3.1,0.4c-8.2,0-16.5,0-24.7,0c-0.6,0-1.1-0.1-1.7-0.2c-0.4-0.2-0.8-0.4-1.1-0.7c-0.6-0.5-1-1.3-1.5-1.9
				c-0.3-0.1-0.7-0.1-1-0.1c-0.2,0.2-0.3,0.3-0.5,0.5c-0.3-0.2-0.7-0.4-1-0.5c-0.1,0.1-0.3,0.4-0.4,0.6c-0.1,0-0.3-0.1-0.5-0.2
				c0-0.2,0-0.6,0-0.8c0-0.5,0-0.9,0-1.3c-0.1-0.3,0-0.6,0.3-0.7c0.2,0.2,0.5,0.3,0.8,0.5c0.2-0.2,0.5-0.3,0.7-0.5
				c0.1,0.1,0.3,0.4,0.5,0.5C68.8,130.4,69.1,130.4,69.3,130.4z M66.9,130.6c-0.2,0.4-0.2,0.9,0,1.2
				C67.2,131.7,67.2,130.8,66.9,130.6z"/>
			<path class="st3" d="M38.3,101c1.3-0.6,2.6-1.1,4-1c6.8,0,13.7,0,20.5,0c0.2,0.5,0.4,0.9,0.6,1.3c-4,0.2-8.1,0-12.2,0.1
				c-0.3,0-0.6,0.1-0.9,0.2c-1.9-0.6-4-0.3-6-0.4C42.4,101.1,40.3,101.3,38.3,101z"/>
			<path class="st3" d="M38,102.3c0.5,0.1,1,0.2,1.6,0.2c1.3,1,3.1,0.6,4.6,0.7c2.2-0.1,4.3,0.2,6.5-0.1c0.3,0.2,0.6,0.5,0.6,0.9
				c-0.1,0.4-0.5,0.6-0.8,0.9c-0.4-0.1-0.9-0.2-1.3-0.2c-2.6,0-5.2,0-7.8,0C40,104.4,38.2,103.8,38,102.3z"/>
			<path class="st3" d="M52.7,103.7c0.9,0.3,1.8,0.9,2,1.9c0.2,0.9-0.5,1.8-1.2,2.2c-0.9,0.5-2,0.7-3,0.7c-12.6,0-25.3,0-37.9,0
				c-2.5,0-5.2,1.5-5.9,4.1c-0.4,1.3-0.1,2.6,0.2,3.8c-0.8-0.5-1.5-1.2-2-2c0.3-1.3,0.5-2.8,1.3-3.9c1-1.5,2.6-2.5,4.3-3
				c1.3-0.3,2.6-0.3,4-0.3c12,0,24,0,36,0c1,0,2.1-0.2,2.7-1c0.3-0.7-0.5-1-1-1.2C52.5,104.6,52.6,104.1,52.7,103.7z"/>
			<path class="st3" d="M6.3,117.7c1,0.5,2.1,0.8,3.1,1c1.2,0.6,2.6,0.8,3.9,0.7c16.5,0,33,0,49.4,0c1.2,0,2.5,0.1,3.7-0.2
				c0.5,0.4,0.8,1,0.4,1.6c-4-0.2-8,0-11.9-0.1c-14.1,0-28.3,0-42.4,0C10.3,120.8,7.6,119.9,6.3,117.7z"/>
			<path class="st3" d="M68.5,119.9c0.6,0.2,1.2,0.6,1.6,1.1c0.7,0.9,0.5,2.2-0.2,3c-0.9,0.8-2.2,1.2-3.4,1.2c-9.7,0-19.3,0-29,0
				c-1.8,0-3.8,0.5-5,2.1c-0.6,0.8-0.5,1.8-0.5,2.7c-0.5-0.3-1-0.7-1.5-1.1c0.3-1.1,0.6-2.2,1.5-3c1.4-1.5,3.5-1.9,5.5-1.9
				c9.6,0,19.2,0,28.7,0c0.9-0.1,2.1-0.1,2.7-0.9c0.5-0.7-0.1-1.3-0.7-1.7C68.4,120.8,68.5,120.4,68.5,119.9z"/>
			<path class="st3" d="M103.4,127c2.6,1.5,3.9,5.2,2.5,8c-0.7,1.3-2,2.5-3.5,2.4c-8.4,0-16.8,0-25.2,0c-1.1,0-2.4,0.1-3.4-0.5
				c-0.7-0.4-1.4-1-1.6-1.8c0.5,0.1,1.1,0.2,1.7,0.2c8.2,0,16.5,0,24.7,0c1,0,2.1,0.1,3.1-0.4c1.6-0.8,2.6-2.5,2.7-4.3
				C104.5,129.5,104.1,128.2,103.4,127z"/>
			<path class="st3" d="M31.5,131.1c0.9,0.4,1.8,0.6,2.7,0.8c1.1,0.5,2.2,0.8,3.4,0.7c6.9,0,13.8,0,20.7,0c2.6,0.1,5.2-0.1,7.8,0.1
				c0.1,0,0.3,0.1,0.5,0.2c0.1-0.1,0.3-0.4,0.4-0.6c0.4,0.2,0.7,0.3,1,0.5c0.2-0.2,0.3-0.3,0.5-0.5c0.3,0,0.7,0,1,0.1
				c0.5,0.6,0.8,1.4,1.5,1.9c-0.3,0.2-0.6,0.3-0.9,0.5c-0.2-0.1-0.5-0.3-0.7-0.4c-0.3,0-0.5,0.3-0.8,0.5c-0.2-0.3-0.3-0.6-0.5-1
				c-10.3-0.1-20.7,0-31,0C35,133.9,32.5,133.2,31.5,131.1z"/>
			<path class="st0" d="M81.5,121.1c6.3-1,13.1-0.2,18.8,3c-0.4,0.8-1,1.4-1.9,1.5c-2.5,0.3-5-0.4-7.5-0.7
				c-5.3-0.8-10.7-0.3-15.9,1.1c-0.7-0.5-1.3-1-1.5-1.8c0.6-0.4,1.2-0.8,1.9-1.1C77.3,122.1,79.4,121.5,81.5,121.1z"/>
			<path class="st4" d="M36.9,98.7c1.1-0.7,2.4-0.8,3.6-0.8c7.4,0,14.8,0,22.2,0c0,0.4,0,0.9,0.1,1.3c-7,0-14.1,0-21.1,0
				c-1.5,0-3.3-0.2-4.5,1c0.4,0.3,0.8,0.6,1.2,0.8c2,0.3,4.1,0.1,6.1,0.2c2,0,4-0.2,6,0.4c1.1,0.3,2,1,2.3,2.2
				c-0.1,0.4-0.2,0.9-0.4,1.3c-1,1.2-2.6,1.5-4.1,1.5c-12.4,0-24.8,0-37.2,0c-1.9,0-3.9,0.5-5.2,1.9c-1.5,1.6-1.9,4.1-0.9,6
				c0.5,0.8,1.2,1.5,2,2c1.2,0.7,2.7,1,4.1,1c17.6,0,35.2,0,52.8,0c1.8-0.1,4.2,0.5,4.8,2.5c0,0.4-0.1,0.9-0.2,1.3
				c-0.8,1.4-2.4,1.9-3.9,1.9c-9.7,0-19.3,0-29,0c-1.8,0-4,0.5-5,2.2c-0.7,1.1-0.5,2.4,0.2,3.5c0.4,0.4,0.9,0.8,1.5,1.1
				c1.1,0.6,2.4,0.7,3.6,0.7c10.2,0,20.3,0,30.5,0c0,0.4,0,0.9,0,1.3c-10.7,0-21.3,0-32,0c-0.9-0.2-1.8-0.4-2.7-0.8
				c-1.5-0.8-2.7-2.2-2.8-3.9c-0.2-1.9,1-3.7,2.7-4.6c1.8-1,3.8-1,5.8-0.9c9.1,0,18.2,0,27.3,0c0.9,0,1.8-0.2,2.5-0.8
				c0.4-0.6,0.1-1.2-0.4-1.6c-0.7-0.3-1.5-0.5-2.3-0.5c-18.3,0-36.5,0-54.8,0c-1.1-0.2-2.2-0.5-3.1-1c-1.3-0.8-2.4-2-2.9-3.4
				c-0.9-2.4-0.2-5.2,1.6-6.9c1.5-1.5,3.7-2.2,5.8-2.2c12.4,0,24.8,0,37.2,0c0.8,0,1.7-0.1,2.5-0.4c0.3-0.2,0.8-0.4,0.8-0.9
				c0-0.4-0.3-0.6-0.6-0.9c-1.1-0.5-2.3-0.6-3.4-0.6c-2.6,0-5.1,0-7.7,0c-0.5,0-1-0.1-1.6-0.2c-0.8-0.2-1.8-0.7-2-1.6
				C35.8,99.9,36.2,99.1,36.9,98.7z"/>
		</g>
		<g>
			<path class="st4" d="M114.4,21.5c0.2,5.3,0.2,10.5,0.4,15.8c-0.5,0-1.1,0-1.6,0C113.6,32,114,26.8,114.4,21.5z"/>
			<path class="st4" d="M100.1,40.6c-0.8-4.6-1.4-9.2-2.2-13.7c1.4,4.4,2.5,8.9,3.8,13.4C101.1,40.3,100.6,40.4,100.1,40.6z"/>
			<path class="st4" d="M81.2,34c-0.5-0.9-1-1.7-1.4-2.7c2.8,4,5.5,7.9,8.3,11.8c-0.4,0.3-0.9,0.6-1.4,0.8
				C84.9,40.6,83,37.3,81.2,34z"/>
			<path class="st4" d="M121.3,37.1c2.7-4.1,5.2-8.3,7.9-12.3c-2.2,4.4-4.4,8.7-6.6,13.1C122.2,37.6,121.8,37.3,121.3,37.1z"/>
			<path class="st4" d="M66.5,45.1c0.7,0.1,1.4,0.2,2.1,0.4c3.8,0.9,7.7,1.8,11.5,2.7c-0.1,0.5-0.3,1-0.4,1.5
				C75.3,48.2,70.9,46.6,66.5,45.1z"/>
			<path class="st4" d="M84.3,48.1c0.9-0.5,1.9-0.6,2.8-0.9c9.8-2.3,19.6-4.6,29.4-6.9c1.1-0.3,2.2-0.6,3.4-0.3
				c1.8,0.3,3.2,1.8,3.6,3.6c0.6,2.5,1.2,5.1,1.8,7.6c0.4,2.3-1.2,4.8-3.5,5.3c-10.3,2.4-20.6,4.8-30.9,7.3
				c-1.1,0.2-2.2,0.6-3.2,0.3c-1.7-0.3-3.2-1.7-3.6-3.4c-0.6-2.5-1.2-5-1.8-7.6C81.6,51.2,82.6,49.1,84.3,48.1z"/>
			<path class="st4" d="M95.4,50c0.5,0,1.1,0.1,1.2,0.6c0.2,0.6-0.4,0.9-0.8,1.1C95.6,51.1,95.5,50.6,95.4,50z"/>
			<path class="st4" d="M96.1,53c0.7-0.1,1.4-0.5,2-0.1c0.9,0.4,1.2,1.6,0.6,2.4c-0.4,0.6-1.2,0.6-1.9,0.8
				C96.6,55.1,96.3,54.1,96.1,53z"/>
			<path class="st4" d="M126.9,45.8c3.7-0.6,7.5-1.2,11.2-1.9c-3.6,1.2-7.3,2.2-10.9,3.4C127.1,46.8,127,46.3,126.9,45.8z"/>
			<path class="st4" d="M64.1,61.7c4.2-1.3,8.4-2.5,12.6-3.7c0.1,0.5,0.2,1,0.4,1.5C72.7,60.3,68.4,61,64.1,61.7z"/>
			<path class="st4" d="M127.8,55.6c0.2-0.5,0.4-0.9,0.6-1.4c3,1.7,6.1,3.4,9,5.2C134.2,58.2,131,56.9,127.8,55.6z"/>
			<path class="st4" d="M111.3,60.7c0.5-0.2,1-0.3,1.5-0.5c1,3.7,2,7.4,3,11C114.2,67.8,112.8,64.2,111.3,60.7z"/>
			<path class="st4" d="M97.5,63.8c0.5,0,1.1-0.1,1.6-0.1c-0.1,3.9-0.1,7.7-0.3,11.6C98.4,71.4,98,67.6,97.5,63.8z"/>
			<path class="st4" d="M76.1,77.7c2.3-3.1,4.6-6.3,6.9-9.4c0.4,0.3,0.8,0.7,1.2,1C81.5,72.1,78.9,75,76.1,77.7z"/>
			<path class="st4" d="M120.8,60.5c0.4-0.4,0.8-0.7,1.2-1.1c2.3,2.9,4.7,5.7,7,8.6C126.2,65.5,123.5,63,120.8,60.5z"/>
		</g>
		<g>
			<path class="st2" d="M108.2,85c0.3,0,0.9,0,0.8,0.5c0,0.3-0.4,0.4-0.6,0.5C108.3,85.6,108.3,85.3,108.2,85z"/>
			<path class="st2" d="M105.6,85.8c0.4-0.5,1.3-0.3,1.6,0.3c0.3,0.7-0.5,1.5-1.2,1.2C105.3,87.2,105.1,86.2,105.6,85.8z"/>
			<path class="st3" d="M145.1,9c1.8,0.3,3.1,1.9,3.5,3.6c4.9,20.9,9.8,41.9,14.7,62.8c0.7,2.7-1.2,5.6-3.8,6.3
				c-12.1,2.9-24.3,5.7-36.4,8.6c0.4,2.2,1,4.4,1.5,6.6c-0.7,0.2-1.4,0.3-2.1,0.5c-0.7-2.9-1.4-5.8-2-8.6
				c12.1-2.8,24.1-5.7,36.2-8.5c2.9-0.5,4.9-3.8,4-6.6c-4.9-20.7-9.7-41.4-14.6-62.2C146,10.5,145.6,9.7,145.1,9z"/>
			<path class="st3" d="M60.8,102.1c0.8,0.1,1.6,0.1,2.4,0c12.1-2.8,24.2-5.7,36.4-8.5c0.1,0.7,0.3,1.3,0.5,2
				c-11.3,2.7-22.7,5.3-34,8C64.2,104.1,62,103.7,60.8,102.1z"/>
			<path class="st3" d="M129.8,98.3c0.5-0.1,0.9-0.5,1.2-0.9c0.5-0.1,0.9-0.2,1.4-0.2c0.9,0.1,1.4,1.3,0.9,2
				c-0.3,0.4-0.8,0.6-1.2,0.7c-11.2,2.6-22.5,5.3-33.7,7.9c-0.5,0.1-1.1,0.3-1.6-0.1c-0.6-0.3-0.6-1-0.7-1.5
				C107.3,103.6,118.6,101,129.8,98.3z"/>
			<path class="st5" d="M103.1,85.7c0.1,0,0.4-0.1,0.5-0.1c0.2,0.8,0.4,1.5,0.5,2.3c0.3,0,0.7-0.1,1-0.1c-0.2,0.6-0.9,0.5-1.4,0.7
				C103.5,87.6,103.3,86.7,103.1,85.7z"/>
			<path class="st5" d="M105.3,85.4c0.7-0.7,2.1-0.4,2.4,0.6c0.4,1.1-0.8,2.2-1.8,1.8C104.8,87.5,104.5,86.1,105.3,85.4z
				 M105.6,85.8c-0.5,0.5-0.3,1.4,0.4,1.6c0.7,0.3,1.5-0.5,1.2-1.2C107,85.5,106.1,85.3,105.6,85.8z"/>
			<path class="st5" d="M109.5,84.2c0.4-0.1,0.9-0.2,1.3-0.3l0.1,0.4c-0.2,0-0.6,0.1-0.8,0.2c0,0.1,0.1,0.4,0.1,0.5
				c0.3-0.1,0.5-0.1,0.8-0.2c0,0.1,0.1,0.4,0.1,0.5c-0.3,0.1-0.6,0.1-0.8,0.2c0.1,0.3,0.2,0.6,0.2,0.9c0.2,0,0.6-0.1,0.8-0.2
				l0.1,0.4c-0.4,0.1-0.9,0.2-1.3,0.3C109.9,86,109.7,85.1,109.5,84.2z"/>
			<path class="st6" d="M107.6,84.6c0.5-0.1,1.2-0.4,1.6,0c0.4,0.3,0.3,0.8,0.3,1.2c0.1,0.4,0.8,1.1,0,1.3c-0.1-0.6-0.4-0.9-1-0.8
				c0.1,0.3,0.1,0.6,0.2,1l-0.5,0.1C108,86.5,107.8,85.6,107.6,84.6z M108.2,85c0.1,0.3,0.2,0.7,0.2,1c0.2-0.2,0.6-0.2,0.6-0.5
				C109.1,84.9,108.5,85,108.2,85z"/>
			<path class="st7" d="M111.6,86.7c0-1,0-1.9,0.1-2.9c0.4,0.5,0.8,1,1.2,1.5c0.2-0.6,0.3-1.3,0.5-1.9c0.5,0.8,0.9,1.7,1.3,2.6
				c-0.8,0.3-0.8-0.7-1.1-1.1c-0.2,0.5-0.3,0.9-0.5,1.4c-0.3-0.4-0.6-0.8-1-1.1C112,85.7,112.4,86.7,111.6,86.7z"/>
		</g>
	</g>
</g>
<g>
	<path class="st5" d="M93.9,59.7l-2.4-10.2l3.1-0.7c1.1-0.3,2-0.2,2.6,0.1c0.7,0.3,1.1,1,1.3,1.9c0.1,0.5,0.1,1,0,1.4
		c-0.1,0.4-0.4,0.8-0.7,1.1c0.5,0,0.9,0.2,1.3,0.5c0.4,0.3,0.6,0.8,0.7,1.4c0.2,1,0.1,1.8-0.3,2.4c-0.4,0.6-1.1,1.1-2.2,1.3
		L93.9,59.7z M94.4,53.3l1.4-0.3c0.9-0.2,1.3-0.8,1.1-1.6c-0.1-0.5-0.3-0.8-0.6-0.9s-0.7-0.2-1.2,0l-1.3,0.3L94.4,53.3z M94.7,54.8
		l0.6,2.8l1.6-0.4c0.4-0.1,0.7-0.3,0.9-0.6c0.2-0.3,0.2-0.6,0.1-1.1c-0.2-0.9-0.8-1.3-1.6-1.1L94.7,54.8z"/>
	<path class="st5" d="M106.3,46l1.6,6.7c0.3,1.1,0.2,2.1-0.3,2.9c-0.5,0.8-1.2,1.3-2.3,1.6c-1,0.2-1.9,0.1-2.7-0.4
		c-0.8-0.5-1.3-1.3-1.5-2.4l-1.6-6.8l1.8-0.4l1.6,6.7c0.2,0.7,0.4,1.1,0.8,1.4c0.4,0.2,0.8,0.3,1.3,0.2c1-0.2,1.4-1,1.1-2.2
		l-1.6-6.8L106.3,46z"/>
	<path class="st5" d="M112,49.5l0.8-5l2-0.5l-1.4,7.2l0.9,3.7l-1.9,0.4l-0.9-3.7l-4.5-5.8l2-0.5L112,49.5z"/>
</g>
</svg>
