<?xml version="1.0" encoding="utf-8"?>
<!-- Generator: Adobe Illustrator 19.2.0, SVG Export Plug-In . SVG Version: 6.00 Build 0)  -->
<svg version="1.1" id="Слой_1" xmlns="http://www.w3.org/2000/svg" xmlns:xlink="http://www.w3.org/1999/xlink" x="0px" y="0px"
	 viewBox="0 0 161.5 149" style="enable-background:new 0 0 161.5 149;" xml:space="preserve">
<style type="text/css">
	.st0{fill:#444444;}
	.st1{fill:#0086A3;}
	.st2{fill:#FFFFFF;}
</style>
<g>
	<path class="st0" d="M107.8,101.5l-5.5-1.4c0.1-1.4,0.2-2.8,0.2-4.2c0-1.6-0.1-3.1-0.3-4.7l5.5-1.5c1.8-0.5,2.8-2.3,2.3-4.1
		l-1.8-6.6c-0.5-1.8-2.3-2.8-4.1-2.3l-5.4,1.5c-1.2-2.7-2.7-5.3-4.5-7.7l4-4.1c1.3-1.3,1.3-3.4,0-4.7l-4.9-4.8
		c-1.3-1.3-3.4-1.3-4.7,0l-4,4c-2.4-1.7-5-3.2-7.7-4.4l1.4-5.5c0.5-1.8-0.6-3.6-2.4-4l-6.6-1.7c-1.8-0.5-3.6,0.6-4,2.4l-1.4,5.5
		c-1.4-0.1-2.8-0.2-4.2-0.2c-1.6,0-3.1,0.1-4.7,0.3l-1.5-5.5c-0.5-1.8-2.3-2.8-4.1-2.3l-6.6,1.8c-1.8,0.5-2.8,2.3-2.3,4.1l1.5,5.4
		c-2.7,1.2-5.3,2.7-7.7,4.5l-4.1-4c-1.3-1.3-3.4-1.3-4.7,0l-4.8,4.9c-1.3,1.3-1.3,3.4,0,4.7l4,4c-1.7,2.4-3.2,5-4.4,7.7l-5.5-1.4
		c-1.8-0.5-3.6,0.6-4,2.4l-1.7,6.6c-0.5,1.8,0.6,3.6,2.4,4l5.5,1.4c-0.1,1.4-0.2,2.8-0.2,4.2c0,1.6,0.1,3.1,0.3,4.7l-5.5,1.5
		c-1.8,0.5-2.8,2.3-2.3,4.1l1.8,6.6c0.5,1.8,2.3,2.8,4.1,2.3l5.4-1.5c1.2,2.7,2.7,5.3,4.5,7.7l-4,4.1c-1.3,1.3-1.3,3.4,0,4.7
		l4.9,4.8c1.3,1.3,3.4,1.3,4.7,0l4-4c2.4,1.7,5,3.2,7.7,4.4l-1.4,5.5c-0.5,1.8,0.6,3.6,2.4,4l6.6,1.7c1.8,0.5,3.6-0.6,4-2.4l1.4-5.5
		c1.4,0.1,2.8,0.2,4.2,0.2c1.6,0,3.1-0.1,4.7-0.3l1.5,5.5c0.5,1.8,2.3,2.8,4.1,2.3l6.6-1.8c1.8-0.5,2.8-2.3,2.3-4.1l-1.5-5.4
		c2.7-1.2,5.3-2.7,7.7-4.5l4.1,4c1.3,1.3,3.4,1.3,4.7,0l4.8-4.9c1.3-1.3,1.3-3.4,0-4.7l-4-4c1.7-2.4,3.2-5,4.4-7.7l5.5,1.4
		c1.8,0.5,3.6-0.6,4-2.4l1.7-6.6C110.6,103.7,109.5,101.9,107.8,101.5z"/>
	<path class="st1" d="M150,42.4l-4.1-1.7c0.1-1,0.2-2,0.2-3.1c0-1.4-0.1-2.9-0.3-4.2l3.8-1.6c1.7-0.7,2.5-2.6,1.8-4.3l-2.6-6.3
		c-0.7-1.7-2.6-2.5-4.3-1.8l-4.2,1.7c-1.5-1.9-3.3-3.6-5.3-5.1l1.6-3.8c0.7-1.7-0.1-3.6-1.8-4.3l-6.3-2.6c-1.7-0.7-3.6,0.1-4.3,1.8
		l-1.7,4.1c-1-0.1-2-0.2-3.1-0.2c-1.4,0-2.9,0.1-4.2,0.3l-1.6-3.8c-0.7-1.7-2.6-2.5-4.3-1.8l-6.3,2.6c-1.7,0.7-2.5,2.6-1.8,4.3
		l1.7,4.2c-1.9,1.5-3.6,3.3-5.1,5.3l-3.8-1.6c-1.7-0.7-3.6,0.1-4.3,1.8l-2.6,6.3c-0.7,1.7,0.1,3.6,1.8,4.3l4.1,1.7
		c-0.1,1-0.2,2-0.2,3.1c0,1.4,0.1,2.9,0.3,4.2l-3.8,1.6c-1.7,0.7-2.5,2.6-1.8,4.3l2.6,6.3c0.7,1.7,2.6,2.5,4.3,1.8l4.2-1.7
		c1.5,1.9,3.3,3.6,5.3,5.1l-1.6,3.8c-0.7,1.7,0.1,3.6,1.8,4.3l6.3,2.6c1.7,0.7,3.6-0.1,4.3-1.8l1.7-4.1c1,0.1,2,0.2,3.1,0.2
		c1.4,0,2.9-0.1,4.2-0.3l1.6,3.8c0.7,1.7,2.6,2.5,4.3,1.8l6.3-2.6c1.7-0.7,2.5-2.6,1.8-4.3l-1.7-4.2c1.9-1.5,3.6-3.3,5.1-5.3
		l3.8,1.6c1.7,0.7,3.6-0.1,4.3-1.8l2.6-6.3C152.5,45.1,151.7,43.1,150,42.4z"/>
	<circle class="st2" cx="119.3" cy="37.6" r="12.6"/>
	<circle class="st2" cx="59.6" cy="95.8" r="27"/>
</g>
</svg>
